<?xml version="1.0" encoding="UTF-8" standalone="no"?>
<!-- Created with Inkscape (http://www.inkscape.org/) -->

<svg
   xmlns:osb="http://www.openswatchbook.org/uri/2009/osb"
   xmlns:dc="http://purl.org/dc/elements/1.1/"
   xmlns:cc="http://creativecommons.org/ns#"
   xmlns:rdf="http://www.w3.org/1999/02/22-rdf-syntax-ns#"
   xmlns:svg="http://www.w3.org/2000/svg"
   xmlns="http://www.w3.org/2000/svg"
   xmlns:sodipodi="http://sodipodi.sourceforge.net/DTD/sodipodi-0.dtd"
   xmlns:inkscape="http://www.inkscape.org/namespaces/inkscape"
   width="85mm"
   height="54mm"
   id="svg11450"
   version="1.1"
   inkscape:version="0.48.5 r10040"
   sodipodi:docname="vcAbakusX_S1.svg"
   inkscape:export-filename="/Users/cam/Documents/Projektordner/V1/vcMarschalekClaus.pdf.png"
   inkscape:export-xdpi="600"
   inkscape:export-ydpi="600">
  <defs
     id="defs3">
    <linearGradient
       id="linearGradient9209-1"
       osb:paint="solid">
      <stop
         style="stop-color:#2c5aa0;stop-opacity:1;"
         offset="0"
         id="stop9211-2" />
    </linearGradient>
    <linearGradient
       id="linearGradient9203-4"
       osb:paint="solid">
      <stop
         style="stop-color:#2c5aa0;stop-opacity:1;"
         offset="0"
         id="stop9205-9" />
    </linearGradient>
    <linearGradient
       id="linearGradient6129-18"
       osb:paint="solid">
      <stop
         style="stop-color:#000000;stop-opacity:1;"
         offset="0"
         id="stop6131-5" />
    </linearGradient>
    <linearGradient
       id="linearGradient9209"
       osb:paint="solid">
      <stop
         style="stop-color:#2c5aa0;stop-opacity:1;"
         offset="0"
         id="stop9211" />
    </linearGradient>
    <linearGradient
       id="linearGradient9203"
       osb:paint="solid">
      <stop
         style="stop-color:#2c5aa0;stop-opacity:1;"
         offset="0"
         id="stop9205" />
    </linearGradient>
    <linearGradient
       id="linearGradient6129-1"
       osb:paint="solid">
      <stop
         style="stop-color:#000000;stop-opacity:1;"
         offset="0"
         id="stop6131-8" />
    </linearGradient>
    <linearGradient
       id="linearGradient6129"
       osb:paint="solid">
      <stop
         style="stop-color:#000000;stop-opacity:1;"
         offset="0"
         id="stop6131" />
    </linearGradient>
  </defs>
  <sodipodi:namedview
     id="base"
     pagecolor="#ffffff"
     bordercolor="#666666"
     borderopacity="1.0"
     inkscape:pageopacity="0.0"
     inkscape:pageshadow="2"
     inkscape:zoom="4"
     inkscape:cx="261.37589"
     inkscape:cy="129.29648"
     inkscape:document-units="mm"
     inkscape:current-layer="layer1"
     showgrid="false"
     showguides="true"
     inkscape:guide-bbox="true"
     units="mm"
     inkscape:window-width="2560"
     inkscape:window-height="1392"
     inkscape:window-x="106"
     inkscape:window-y="3"
     inkscape:window-maximized="0">
    <sodipodi:guide
       orientation="1,0"
       position="292,62.25"
       id="guide11813" />
    <sodipodi:guide
       orientation="0,1"
       position="303.75,7.5"
       id="guide11815" />
    <sodipodi:guide
       orientation="1,0"
       position="7.75,37.25"
       id="guide11817" />
    <sodipodi:guide
       orientation="0,1"
       position="317.25,93.5"
       id="guide11819" />
    <sodipodi:guide
       orientation="1,0"
       position="17.716535,124"
       id="guide11837" />
    <sodipodi:guide
       orientation="0,1"
       position="336.25,51.5"
       id="guide11841" />
    <sodipodi:guide
       orientation="1,0"
       position="283.46457,100.75"
       id="guide3354" />
    <sodipodi:guide
       orientation="0,1"
       position="368.75,173.62205"
       id="guide3356" />
  </sodipodi:namedview>
  <metadata
     id="metadata11454">
    <rdf:RDF>
      <cc:Work
         rdf:about="">
        <dc:format>image/svg+xml</dc:format>
        <dc:type
           rdf:resource="http://purl.org/dc/dcmitype/StillImage" />
        <dc:title />
      </cc:Work>
    </rdf:RDF>
  </metadata>
  <g
     inkscape:label="Layer 1"
     inkscape:groupmode="layer"
     id="layer1">
    <flowRoot
       style="font-size:40px;font-style:normal;font-weight:normal;line-height:125%;letter-spacing:0px;word-spacing:0px;fill:#000000;fill-opacity:1;stroke:none;font-family:Sans"
       id="flowRoot11400"
       xml:space="preserve"
       transform="matrix(0.69751986,0,0,0.69751986,-191.77185,-29.015433)"><flowRegion
         id="flowRegion11402"><rect
           y="-56.137817"
           x="341"
           height="236.5"
           width="512"
           id="rect11404" /></flowRegion><flowPara
         id="flowPara11406" /></flowRoot>    <flowRoot
       xml:space="preserve"
       id="flowRoot11691"
       style="fill:black;stroke:none;stroke-opacity:1;stroke-width:1px;stroke-linejoin:miter;stroke-linecap:butt;fill-opacity:1;font-family:LiHei Pro;font-style:normal;font-weight:normal;font-size:12px;line-height:125%;letter-spacing:0px;word-spacing:0px;-inkscape-font-specification:LiHei Pro;font-stretch:normal;font-variant:normal"><flowRegion
         id="flowRegion11693"><rect
           id="rect11695"
           width="67.5"
           height="38.333332"
           x="9.166667"
           y="132.17191" /></flowRegion><flowPara
         id="flowPara11697" /></flowRoot>    <flowRoot
       xml:space="preserve"
       id="flowRoot11825"
       style="fill:black;stroke:none;stroke-opacity:1;stroke-width:1px;stroke-linejoin:miter;stroke-linecap:butt;fill-opacity:1;font-family:LiHei Pro;font-style:normal;font-weight:normal;font-size:12px;line-height:125%;letter-spacing:0px;word-spacing:0px;-inkscape-font-specification:LiHei Pro;font-stretch:normal;font-variant:normal"><flowRegion
         id="flowRegion11827"><rect
           id="rect11829"
           width="8"
           height="15.25"
           x="136.5"
           y="79.588577" /></flowRegion><flowPara
         id="flowPara11831" /></flowRoot>    <flowRoot
       xml:space="preserve"
       id="flowRoot11851"
       style="fill:black;stroke:none;stroke-opacity:1;stroke-width:1px;stroke-linejoin:miter;stroke-linecap:butt;fill-opacity:1;font-family:LiHei Pro;font-style:normal;font-weight:normal;font-size:12px;line-height:125%;letter-spacing:0px;word-spacing:0px;-inkscape-font-specification:LiHei Pro;font-stretch:normal;font-variant:normal"><flowRegion
         id="flowRegion11853"><rect
           id="rect11855"
           width="348.25"
           height="245.75"
           x="-24.25"
           y="-30.911423" /></flowRegion><flowPara
         id="flowPara11857" /></flowRoot>    <path
       style="opacity:0;fill:#000000;fill-opacity:1"
       d=""
       id="path6147-0"
       inkscape:connector-curvature="0" />
    <text
       xml:space="preserve"
       style="font-size:12px;font-style:normal;font-variant:normal;font-weight:normal;font-stretch:normal;line-height:125%;letter-spacing:0px;word-spacing:0px;fill:#000000;fill-opacity:1;stroke:none;font-family:Verdana;-inkscape-font-specification:Verdana"
       x="17.716536"
       y="139.83858"
       id="text11683"
       sodipodi:linespacing="125%"><tspan
         sodipodi:role="line"
         id="tspan11685"
         x="17.716536"
         y="139.83858"
         style="font-size:10px;font-style:normal;font-variant:normal;font-weight:normal;font-stretch:normal;text-align:start;line-height:125%;writing-mode:lr-tb;text-anchor:start;font-family:Verdana;-inkscape-font-specification:Verdana">abakus x gmbh</tspan><tspan
         sodipodi:role="line"
         x="17.716536"
         y="152.33858"
         style="font-size:10px;font-style:normal;font-variant:normal;font-weight:normal;font-stretch:normal;text-align:start;line-height:125%;writing-mode:lr-tb;text-anchor:start;font-family:Verdana;-inkscape-font-specification:Verdana"
         id="tspan11839">Königsteinerstr. 47</tspan><tspan
         sodipodi:role="line"
         x="17.716536"
         y="164.83858"
         id="tspan11687"
         style="font-size:10px;font-style:normal;font-variant:normal;font-weight:normal;font-stretch:normal;text-align:start;line-height:125%;writing-mode:lr-tb;text-anchor:start;font-family:Verdana;-inkscape-font-specification:Verdana">65929 Frankfurt am Main</tspan><tspan
         sodipodi:role="line"
         x="17.716536"
         y="177.33858"
         id="tspan11689"
         style="font-size:10px;font-style:normal;font-variant:normal;font-weight:normal;font-stretch:normal;text-align:start;line-height:125%;writing-mode:lr-tb;text-anchor:start;font-family:Verdana;-inkscape-font-specification:Verdana">Germany</tspan></text>
    <path
       style="fill:#2c5aa0;fill-opacity:1;stroke:none"
       d="m 240.01877,61.488157 17.08962,-24.406474 -13.55964,-19.365156 9.2666,0 8.92633,12.748123 8.90639,-12.748123 12.8165,0 -15.21053,21.722894 15.21053,22.048736 -9.2666,0 -10.69132,-15.268784 -10.6913,15.268784 z"
       id="path8689-8"
       inkscape:connector-curvature="0"
       sodipodi:nodetypes="ccccccccccccc" />
    <g
       transform="matrix(0.06429802,0,0,0.06429802,139.2578,-16.409408)"
       id="layer1-36"
       inkscape:label="Ebene 1">
      <g
         transform="matrix(0,1,-1,0,1252.3622,252.36218)"
         inkscape:label="Ebene 1"
         id="layer1-1-8">
        <path
           sodipodi:type="arc"
           style="fill:#000000"
           id="path2993-8"
           sodipodi:cx="500"
           sodipodi:cy="444.09448"
           sodipodi:rx="200"
           sodipodi:ry="200"
           d="m 700,444.09448 c 0,110.45695 -89.54305,200 -200,200 -110.45695,0 -200,-89.54305 -200,-200 0,-110.45695 89.54305,-200 200,-200 110.45695,0 200,89.54305 200,200 z"
           transform="translate(0,308.2677)" />
        <path
           sodipodi:type="arc"
           style="fill:#ffffff"
           id="path3003-8"
           sodipodi:cx="500"
           sodipodi:cy="444.09448"
           sodipodi:rx="125"
           sodipodi:ry="125"
           d="m 625,444.09448 c 0,69.0356 -55.96441,125 -125,125 -69.03559,0 -125,-55.9644 -125,-125 0,-69.03559 55.96441,-125 125,-125 69.03559,0 125,55.96441 125,125 z"
           transform="translate(0,308.2677)" />
        <rect
           style="fill:#000000"
           id="rect3005-4-1"
           width="75"
           height="200"
           x="300"
           y="552.36218" />
        <rect
           style="fill:#000000"
           id="rect3005-7-6"
           width="75"
           height="200"
           x="625"
           y="552.36218" />
        <rect
           style="fill:#ffffff"
           id="rect3005-2-4"
           width="250"
           height="200"
           x="375"
           y="552.36218" />
      </g>
      <rect
         y="452.36218"
         x="300"
         height="500"
         width="75"
         id="rect3005-9"
         style="fill:#2c5aa0;fill-opacity:1" />
    </g>
    <g
       transform="matrix(0.06429549,0,0,0.06429549,55.925927,-16.408489)"
       id="layer1-7"
       inkscape:label="Ebene 1">
      <path
         transform="translate(0,308.2677)"
         d="m 700,444.09448 c 0,110.45695 -89.54305,200 -200,200 -110.45695,0 -200,-89.54305 -200,-200 0,-110.45695 89.54305,-200 200,-200 110.45695,0 200,89.54305 200,200 z"
         sodipodi:ry="200"
         sodipodi:rx="200"
         sodipodi:cy="444.09448"
         sodipodi:cx="500"
         id="path2993"
         style="fill:#000000"
         sodipodi:type="arc" />
      <path
         transform="translate(0,308.2677)"
         d="m 625,444.09448 c 0,69.0356 -55.96441,125 -125,125 -69.03559,0 -125,-55.9644 -125,-125 0,-69.03559 55.96441,-125 125,-125 69.03559,0 125,55.96441 125,125 z"
         sodipodi:ry="125"
         sodipodi:rx="125"
         sodipodi:cy="444.09448"
         sodipodi:cx="500"
         id="path3003"
         style="fill:#ffffff"
         sodipodi:type="arc" />
      <rect
         y="552.36218"
         x="625"
         height="400"
         width="75"
         id="rect3005"
         style="fill:#000000" />
    </g>
    <g
       transform="matrix(0.06429549,0,0,0.06429549,83.264161,-16.408489)"
       id="layer1-2"
       inkscape:label="Ebene 1">
      <path
         transform="translate(0,308.2677)"
         d="m 700,444.09448 c 0,110.45695 -89.54305,200 -200,200 -110.45695,0 -200,-89.54305 -200,-200 0,-110.45695 89.54305,-200 200,-200 110.45695,0 200,89.54305 200,200 z"
         sodipodi:ry="200"
         sodipodi:rx="200"
         sodipodi:cy="444.09448"
         sodipodi:cx="500"
         id="path2993-6"
         style="fill:#000000"
         sodipodi:type="arc" />
      <path
         transform="translate(0,308.2677)"
         d="m 625,444.09448 c 0,69.0356 -55.96441,125 -125,125 -69.03559,0 -125,-55.9644 -125,-125 0,-69.03559 55.96441,-125 125,-125 69.03559,0 125,55.96441 125,125 z"
         sodipodi:ry="125"
         sodipodi:rx="125"
         sodipodi:cy="444.09448"
         sodipodi:cx="500"
         id="path3003-6"
         style="fill:#ffffff"
         sodipodi:type="arc" />
      <rect
         y="452.36218"
         x="300"
         height="500"
         width="75"
         id="rect3005-2"
         style="fill:#000000" />
    </g>
    <g
       transform="matrix(0.06429549,0,0,0.06429549,110.60241,-16.408489)"
       id="layer1-7-1"
       inkscape:label="Ebene 1">
      <path
         transform="translate(0,308.2677)"
         d="m 700,444.09448 c 0,110.45695 -89.54305,200 -200,200 -110.45695,0 -200,-89.54305 -200,-200 0,-110.45695 89.54305,-200 200,-200 110.45695,0 200,89.54305 200,200 z"
         sodipodi:ry="200"
         sodipodi:rx="200"
         sodipodi:cy="444.09448"
         sodipodi:cx="500"
         id="path2993-62"
         style="fill:#000000"
         sodipodi:type="arc" />
      <path
         transform="translate(0,308.2677)"
         d="m 625,444.09448 c 0,69.0356 -55.96441,125 -125,125 -69.03559,0 -125,-55.9644 -125,-125 0,-69.03559 55.96441,-125 125,-125 69.03559,0 125,55.96441 125,125 z"
         sodipodi:ry="125"
         sodipodi:rx="125"
         sodipodi:cy="444.09448"
         sodipodi:cx="500"
         id="path3003-3"
         style="fill:#ffffff"
         sodipodi:type="arc" />
      <rect
         y="552.36218"
         x="625"
         height="400"
         width="75"
         id="rect3005-0"
         style="fill:#000000" />
    </g>
    <g
       transform="matrix(0.06429549,0,0,0.06429549,167.32067,-16.408489)"
       id="layer1-4"
       inkscape:label="Ebene 1">
      <path
         transform="translate(0,308.2677)"
         d="m 700,444.09448 c 0,110.45695 -89.54305,200 -200,200 -110.45695,0 -200,-89.54305 -200,-200 0,-110.45695 89.54305,-200 200,-200 110.45695,0 200,89.54305 200,200 z"
         sodipodi:ry="200"
         sodipodi:rx="200"
         sodipodi:cy="444.09448"
         sodipodi:cx="500"
         id="path2993-61"
         style="fill:#000000"
         sodipodi:type="arc" />
      <path
         transform="translate(0,308.2677)"
         d="m 625,444.09448 c 0,69.0356 -55.96441,125 -125,125 -69.03559,0 -125,-55.9644 -125,-125 0,-69.03559 55.96441,-125 125,-125 69.03559,0 125,55.96441 125,125 z"
         sodipodi:ry="125"
         sodipodi:rx="125"
         sodipodi:cy="444.09448"
         sodipodi:cx="500"
         id="path3003-63"
         style="fill:#ffffff"
         sodipodi:type="arc" />
      <rect
         y="552.36218"
         x="300"
         height="200"
         width="75"
         id="rect3005-6"
         style="fill:#000000" />
      <rect
         y="552.36218"
         x="625"
         height="200"
         width="75"
         id="rect3005-7"
         style="fill:#000000" />
      <rect
         y="552.36218"
         x="375"
         height="200"
         width="250"
         id="rect3005-2-6"
         style="fill:#ffffff" />
    </g>
    <text
       xml:space="preserve"
       style="font-size:40.83563232px;font-style:normal;font-weight:normal;line-height:125%;letter-spacing:0px;word-spacing:0px;fill:#000000;fill-opacity:1;stroke:none;font-family:Sans"
       x="140.81326"
       y="61.614834"
       id="text11253"
       sodipodi:linespacing="125%"><tspan
         sodipodi:role="line"
         id="tspan11255"
         x="140.81326"
         y="61.614834"
         style="font-size:12.25068855px;font-style:normal;font-variant:normal;font-weight:normal;font-stretch:normal;font-family:LiHei Pro;-inkscape-font-specification:LiHei Pro">IT CONSULTING</tspan></text>
    <g
       transform="matrix(0.06429549,0,0,0.06429549,189.83675,-16.770104)"
       id="layer1-40"
       inkscape:label="Ebene 1">
      <path
         sodipodi:nodetypes="ccsscccccccsscc"
         transform="translate(0,308.2677)"
         inkscape:connector-curvature="0"
         id="path6139"
         d="m 700,241.09448 c -75,0 -167.86342,0.77967 -200,0 -167.5,-2.5 -167.5,240 0,240 81.3286,0 47.5786,0 58.49645,0 10.91785,0 66.50355,0 66.50355,0 75,0 75,88 0,88 l -250,0 0,75 250,0 c 169.83333,0 180.62053,-237 0,-237 l -65.5,0 -59.5,0 c -60.5,0 -64,-88 0,-88 125,0 200,0 200,0 z"
         style="fill:#000000;fill-opacity:1;stroke:#000000;stroke-width:1px;stroke-linecap:butt;stroke-linejoin:miter;stroke-opacity:1" />
      <path
         transform="translate(0,308.2677)"
         inkscape:connector-curvature="0"
         id="path6143"
         d="m 375.54004,606.44723 0,-36.7599 128.31083,0 c 113.31864,0 128.92071,-0.0906 133.5305,-0.77504 18.93783,-2.812 33.27025,-12.02457 40.22417,-25.85522 3.05472,-6.07554 4.06686,-10.47208 4.11382,-17.86974 0.0318,-5.01814 -0.17617,-7.00455 -1.05548,-10.07833 -4.6982,-16.42329 -17.04755,-27.54012 -36.0062,-32.41263 -8.49907,-2.18432 -7.93458,-2.16784 -85.61764,-2.49886 -72.93189,-0.31078 -74.90809,-0.34425 -81.25,-1.37642 -19.55054,-3.18192 -34.21832,-8.4218 -48.76766,-17.42166 -24.90953,-15.4084 -43.30623,-41.62842 -50.52061,-72.00483 -4.36796,-18.39143 -4.15737,-42.30673 0.53189,-60.40552 3.1773,-12.26316 9.10893,-25.97996 15.37384,-35.55175 19.02384,-29.0654 48.59078,-46.38214 86.63254,-50.73886 3.24785,-0.37196 38.46933,-0.57833 111.37501,-0.65257 l 106.62501,-0.10857 -1e-5,38.10925 -10e-6,38.10925 -103.875,0.18844 c -76.0692,0.13799 -104.74497,0.34421 -107.125,0.7704 -14.59861,2.61417 -23.42804,6.86067 -31.75,15.2701 -5.65567,5.71513 -8.77905,10.91617 -10.84109,18.05256 -1.66661,5.76786 -1.64614,16.30756 0.0422,21.75 5.16095,16.63623 17.98199,27.40212 38.25674,32.1244 4.48274,1.04409 5.52258,1.06216 79.54212,1.38235 79.48023,0.34382 78.47745,0.31408 92.5,2.74352 28.06571,4.86246 51.18626,16.48156 68.78567,34.56784 19.40119,19.93791 29.91728,45.09744 30.79729,73.68189 0.48842,15.86464 -1.11414,27.2504 -5.8733,41.72836 -9.6928,29.48668 -30.35601,53.69959 -57.70966,67.62351 -13.74539,6.99686 -26.34369,10.97784 -43.5,13.7457 l -7,1.12933 -132.875,0.14645 -132.87502,0.14646 0,-36.75991 z"
         style="opacity:0;fill:#000000;fill-opacity:1" />
      <path
         transform="translate(0,308.2677)"
         inkscape:connector-curvature="0"
         id="path6145"
         d="m 375.54004,606.44723 0,-36.7599 128.31083,0 c 113.31864,0 128.92071,-0.0906 133.5305,-0.77504 18.93783,-2.812 33.27025,-12.02457 40.22417,-25.85522 3.05472,-6.07554 4.06686,-10.47208 4.11382,-17.86974 0.0318,-5.01814 -0.17617,-7.00455 -1.05548,-10.07833 -4.6982,-16.42329 -17.04755,-27.54012 -36.0062,-32.41263 -8.49907,-2.18432 -7.93458,-2.16784 -85.61764,-2.49886 -72.93189,-0.31078 -74.90809,-0.34425 -81.25,-1.37642 -19.55054,-3.18192 -34.21832,-8.4218 -48.76766,-17.42166 -24.90953,-15.4084 -43.30623,-41.62842 -50.52061,-72.00483 -4.36796,-18.39143 -4.15737,-42.30673 0.53189,-60.40552 3.1773,-12.26316 9.10893,-25.97996 15.37384,-35.55175 19.02384,-29.0654 48.59078,-46.38214 86.63254,-50.73886 3.24785,-0.37196 38.46933,-0.57833 111.37501,-0.65257 l 106.62501,-0.10857 -1e-5,38.10925 -10e-6,38.10925 -103.875,0.18844 c -76.0692,0.13799 -104.74497,0.34421 -107.125,0.7704 -14.59861,2.61417 -23.42804,6.86067 -31.75,15.2701 -5.65567,5.71513 -8.77905,10.91617 -10.84109,18.05256 -1.66661,5.76786 -1.64614,16.30756 0.0422,21.75 5.16095,16.63623 17.98199,27.40212 38.25674,32.1244 4.48274,1.04409 5.52258,1.06216 79.54212,1.38235 79.48023,0.34382 78.47745,0.31408 92.5,2.74352 28.06571,4.86246 51.18626,16.48156 68.78567,34.56784 19.40119,19.93791 29.91728,45.09744 30.79729,73.68189 0.48842,15.86464 -1.11414,27.2504 -5.8733,41.72836 -9.6928,29.48668 -30.35601,53.69959 -57.70966,67.62351 -13.74539,6.99686 -26.34369,10.97784 -43.5,13.7457 l -7,1.12933 -132.875,0.14645 -132.87502,0.14646 0,-36.75991 z"
         style="opacity:0;fill:#000000;fill-opacity:1" />
      <path
         transform="translate(0,308.2677)"
         inkscape:connector-curvature="0"
         id="path6147"
         d=""
         style="opacity:0;fill:#000000;fill-opacity:1" />
      <path
         transform="translate(0,308.2677)"
         inkscape:connector-curvature="0"
         id="path6149"
         d="m 375.54004,606.44723 0,-36.7599 128.31083,0 c 113.31864,0 128.92071,-0.0906 133.5305,-0.77504 18.93783,-2.812 33.27025,-12.02457 40.22417,-25.85522 3.05472,-6.07554 4.06686,-10.47208 4.11382,-17.86974 0.0318,-5.01814 -0.17617,-7.00455 -1.05548,-10.07833 -4.6982,-16.42329 -17.04755,-27.54012 -36.0062,-32.41263 -8.49907,-2.18432 -7.93458,-2.16784 -85.61764,-2.49886 -72.93189,-0.31078 -74.90809,-0.34425 -81.25,-1.37642 -19.55054,-3.18192 -34.21832,-8.4218 -48.76766,-17.42166 -24.90953,-15.4084 -43.30623,-41.62842 -50.52061,-72.00483 -4.36796,-18.39143 -4.15737,-42.30673 0.53189,-60.40552 3.1773,-12.26316 9.10893,-25.97996 15.37384,-35.55175 19.02384,-29.0654 48.59078,-46.38214 86.63254,-50.73886 3.24785,-0.37196 38.46933,-0.57833 111.37501,-0.65257 l 106.62501,-0.10857 -1e-5,38.10925 -10e-6,38.10925 -103.875,0.18844 c -76.0692,0.13799 -104.74497,0.34421 -107.125,0.7704 -14.59861,2.61417 -23.42804,6.86067 -31.75,15.2701 -5.65567,5.71513 -8.77905,10.91617 -10.84109,18.05256 -1.66661,5.76786 -1.64614,16.30756 0.0422,21.75 5.16095,16.63623 17.98199,27.40212 38.25674,32.1244 4.48274,1.04409 5.52258,1.06216 79.54212,1.38235 79.48023,0.34382 78.47745,0.31408 92.5,2.74352 28.06571,4.86246 51.18626,16.48156 68.78567,34.56784 19.40119,19.93791 29.91728,45.09744 30.79729,73.68189 0.48842,15.86464 -1.11414,27.2504 -5.8733,41.72836 -9.6928,29.48668 -30.35601,53.69959 -57.70966,67.62351 -13.74539,6.99686 -26.34369,10.97784 -43.5,13.7457 l -7,1.12933 -132.875,0.14645 -132.87502,0.14646 0,-36.75991 z"
         style="opacity:0;fill:#000000;fill-opacity:1" />
    </g>
  </g>
</svg>
