<?xml version="1.0" encoding="UTF-8" standalone="no"?>
<!-- Created with Inkscape (http://www.inkscape.org/) -->

<svg
   xmlns:osb="http://www.openswatchbook.org/uri/2009/osb"
   xmlns:dc="http://purl.org/dc/elements/1.1/"
   xmlns:cc="http://creativecommons.org/ns#"
   xmlns:rdf="http://www.w3.org/1999/02/22-rdf-syntax-ns#"
   xmlns:svg="http://www.w3.org/2000/svg"
   xmlns="http://www.w3.org/2000/svg"
   xmlns:sodipodi="http://sodipodi.sourceforge.net/DTD/sodipodi-0.dtd"
   xmlns:inkscape="http://www.inkscape.org/namespaces/inkscape"
   width="210mm"
   height="297mm"
   id="svg3241"
   version="1.1"
   inkscape:version="0.48.5 r10040"
   sodipodi:docname="Logo_V1.svg">
  <defs
     id="defs3">
    <linearGradient
       osb:paint="solid"
       id="linearGradient6129">
      <stop
         id="stop6131"
         offset="0"
         style="stop-color:#000000;stop-opacity:1;" />
    </linearGradient>
    <linearGradient
       osb:paint="solid"
       id="linearGradient6129-1">
      <stop
         id="stop6131-8"
         offset="0"
         style="stop-color:#000000;stop-opacity:1;" />
    </linearGradient>
    <linearGradient
       osb:paint="solid"
       id="linearGradient9203">
      <stop
         id="stop9205"
         offset="0"
         style="stop-color:#2c5aa0;stop-opacity:1;" />
    </linearGradient>
    <linearGradient
       osb:paint="solid"
       id="linearGradient9209">
      <stop
         id="stop9211"
         offset="0"
         style="stop-color:#2c5aa0;stop-opacity:1;" />
    </linearGradient>
    <linearGradient
       osb:paint="solid"
       id="linearGradient6129-18">
      <stop
         id="stop6131-5"
         offset="0"
         style="stop-color:#000000;stop-opacity:1;" />
    </linearGradient>
    <linearGradient
       osb:paint="solid"
       id="linearGradient9203-4">
      <stop
         id="stop9205-9"
         offset="0"
         style="stop-color:#2c5aa0;stop-opacity:1;" />
    </linearGradient>
    <linearGradient
       osb:paint="solid"
       id="linearGradient9209-1">
      <stop
         id="stop9211-2"
         offset="0"
         style="stop-color:#2c5aa0;stop-opacity:1;" />
    </linearGradient>
  </defs>
  <sodipodi:namedview
     inkscape:document-units="mm"
     id="base"
     pagecolor="#ffffff"
     bordercolor="#666666"
     borderopacity="1.0"
     inkscape:pageopacity="0.0"
     inkscape:pageshadow="2"
     inkscape:zoom="2"
     inkscape:cx="655.61292"
     inkscape:cy="862.85714"
     inkscape:current-layer="g11358"
     showgrid="false"
     inkscape:window-width="2560"
     inkscape:window-height="1392"
     inkscape:window-x="0"
     inkscape:window-y="0"
     inkscape:window-maximized="1"
     showguides="true"
     inkscape:guide-bbox="true">
    <sodipodi:guide
       orientation="1,0"
       position="850.3937,1677.1429"
       id="guide8461" />
    <sodipodi:guide
       orientation="0,1"
       position="-945.71429,708.66142"
       id="guide8463" />
    <sodipodi:guide
       orientation="1,0"
       position="0,914.28571"
       id="guide8465" />
    <sodipodi:guide
       orientation="1,0"
       position="425.19685,1200"
       id="guide8467" />
    <sodipodi:guide
       orientation="1,0"
       position="1275.5906,5.7142857"
       id="guide8469" />
    <sodipodi:guide
       orientation="1,0"
       position="1700.7874,708.66142"
       id="guide8471" />
    <sodipodi:guide
       orientation="1,0"
       position="2125.9843,434.28571"
       id="guide8473" />
    <sodipodi:guide
       orientation="0,1"
       position="3091.4286,514.28571"
       id="guide8475" />
  </sodipodi:namedview>
  <metadata
     id="metadata4">
    <rdf:RDF>
      <cc:Work
         rdf:about="">
        <dc:format>image/svg+xml</dc:format>
        <dc:type
           rdf:resource="http://purl.org/dc/dcmitype/StillImage" />
        <dc:title></dc:title>
      </cc:Work>
    </rdf:RDF>
  </metadata>
  <g
     inkscape:label="Layer 1"
     inkscape:groupmode="layer"
     id="layer1">
    <g
       id="g11358">
      <g
         id="g11408">
        <g
           transform="matrix(0.06298228,0,0,0.06298228,552.30413,23.434572)"
           id="layer1-36"
           inkscape:label="Ebene 1">
          <g
             transform="matrix(0,1,-1,0,1252.3622,252.36218)"
             inkscape:label="Ebene 1"
             id="layer1-1-8">
            <path
               sodipodi:type="arc"
               style="fill:#000000"
               id="path2993-8"
               sodipodi:cx="500"
               sodipodi:cy="444.09448"
               sodipodi:rx="200"
               sodipodi:ry="200"
               d="m 700,444.09448 c 0,110.45695 -89.54305,200 -200,200 -110.45695,0 -200,-89.54305 -200,-200 0,-110.45695 89.54305,-200 200,-200 110.45695,0 200,89.54305 200,200 z"
               transform="translate(0,308.2677)" />
            <path
               sodipodi:type="arc"
               style="fill:#ffffff"
               id="path3003-8"
               sodipodi:cx="500"
               sodipodi:cy="444.09448"
               sodipodi:rx="125"
               sodipodi:ry="125"
               d="m 625,444.09448 c 0,69.0356 -55.96441,125 -125,125 -69.03559,0 -125,-55.9644 -125,-125 0,-69.03559 55.96441,-125 125,-125 69.03559,0 125,55.96441 125,125 z"
               transform="translate(0,308.2677)" />
            <rect
               style="fill:#000000"
               id="rect3005-4-1"
               width="75"
               height="200"
               x="300"
               y="552.36218" />
            <rect
               style="fill:#000000"
               id="rect3005-7-6"
               width="75"
               height="200"
               x="625"
               y="552.36218" />
            <rect
               style="fill:#ffffff"
               id="rect3005-2-4"
               width="250"
               height="200"
               x="375"
               y="552.36218" />
          </g>
          <rect
             y="452.36218"
             x="300"
             height="500"
             width="75"
             id="rect3005-9"
             style="fill:#2c5aa0;fill-opacity:1" />
        </g>
        <g
           transform="matrix(0.0629798,0,0,0.0629798,470.67749,23.435472)"
           id="layer1-7"
           inkscape:label="Ebene 1">
          <path
             transform="translate(0,308.2677)"
             d="m 700,444.09448 c 0,110.45695 -89.54305,200 -200,200 -110.45695,0 -200,-89.54305 -200,-200 0,-110.45695 89.54305,-200 200,-200 110.45695,0 200,89.54305 200,200 z"
             sodipodi:ry="200"
             sodipodi:rx="200"
             sodipodi:cy="444.09448"
             sodipodi:cx="500"
             id="path2993"
             style="fill:#000000"
             sodipodi:type="arc" />
          <path
             transform="translate(0,308.2677)"
             d="m 625,444.09448 c 0,69.0356 -55.96441,125 -125,125 -69.03559,0 -125,-55.9644 -125,-125 0,-69.03559 55.96441,-125 125,-125 69.03559,0 125,55.96441 125,125 z"
             sodipodi:ry="125"
             sodipodi:rx="125"
             sodipodi:cy="444.09448"
             sodipodi:cx="500"
             id="path3003"
             style="fill:#ffffff"
             sodipodi:type="arc" />
          <rect
             y="552.36218"
             x="625"
             height="400"
             width="75"
             id="rect3005"
             style="fill:#000000" />
        </g>
        <g
           transform="matrix(0.0629798,0,0,0.0629798,497.4563,23.435472)"
           id="layer1-2"
           inkscape:label="Ebene 1">
          <path
             transform="translate(0,308.2677)"
             d="m 700,444.09448 c 0,110.45695 -89.54305,200 -200,200 -110.45695,0 -200,-89.54305 -200,-200 0,-110.45695 89.54305,-200 200,-200 110.45695,0 200,89.54305 200,200 z"
             sodipodi:ry="200"
             sodipodi:rx="200"
             sodipodi:cy="444.09448"
             sodipodi:cx="500"
             id="path2993-6"
             style="fill:#000000"
             sodipodi:type="arc" />
          <path
             transform="translate(0,308.2677)"
             d="m 625,444.09448 c 0,69.0356 -55.96441,125 -125,125 -69.03559,0 -125,-55.9644 -125,-125 0,-69.03559 55.96441,-125 125,-125 69.03559,0 125,55.96441 125,125 z"
             sodipodi:ry="125"
             sodipodi:rx="125"
             sodipodi:cy="444.09448"
             sodipodi:cx="500"
             id="path3003-6"
             style="fill:#ffffff"
             sodipodi:type="arc" />
          <rect
             y="452.36218"
             x="300"
             height="500"
             width="75"
             id="rect3005-2"
             style="fill:#000000" />
        </g>
        <g
           transform="matrix(0.0629798,0,0,0.0629798,524.23512,23.435472)"
           id="layer1-7-1"
           inkscape:label="Ebene 1">
          <path
             transform="translate(0,308.2677)"
             d="m 700,444.09448 c 0,110.45695 -89.54305,200 -200,200 -110.45695,0 -200,-89.54305 -200,-200 0,-110.45695 89.54305,-200 200,-200 110.45695,0 200,89.54305 200,200 z"
             sodipodi:ry="200"
             sodipodi:rx="200"
             sodipodi:cy="444.09448"
             sodipodi:cx="500"
             id="path2993-62"
             style="fill:#000000"
             sodipodi:type="arc" />
          <path
             transform="translate(0,308.2677)"
             d="m 625,444.09448 c 0,69.0356 -55.96441,125 -125,125 -69.03559,0 -125,-55.9644 -125,-125 0,-69.03559 55.96441,-125 125,-125 69.03559,0 125,55.96441 125,125 z"
             sodipodi:ry="125"
             sodipodi:rx="125"
             sodipodi:cy="444.09448"
             sodipodi:cx="500"
             id="path3003-3"
             style="fill:#ffffff"
             sodipodi:type="arc" />
          <rect
             y="552.36218"
             x="625"
             height="400"
             width="75"
             id="rect3005-0"
             style="fill:#000000" />
        </g>
        <g
           transform="matrix(0.0629798,0,0,0.0629798,579.79274,23.435472)"
           id="layer1-4"
           inkscape:label="Ebene 1">
          <path
             transform="translate(0,308.2677)"
             d="m 700,444.09448 c 0,110.45695 -89.54305,200 -200,200 -110.45695,0 -200,-89.54305 -200,-200 0,-110.45695 89.54305,-200 200,-200 110.45695,0 200,89.54305 200,200 z"
             sodipodi:ry="200"
             sodipodi:rx="200"
             sodipodi:cy="444.09448"
             sodipodi:cx="500"
             id="path2993-61"
             style="fill:#000000"
             sodipodi:type="arc" />
          <path
             transform="translate(0,308.2677)"
             d="m 625,444.09448 c 0,69.0356 -55.96441,125 -125,125 -69.03559,0 -125,-55.9644 -125,-125 0,-69.03559 55.96441,-125 125,-125 69.03559,0 125,55.96441 125,125 z"
             sodipodi:ry="125"
             sodipodi:rx="125"
             sodipodi:cy="444.09448"
             sodipodi:cx="500"
             id="path3003-63"
             style="fill:#ffffff"
             sodipodi:type="arc" />
          <rect
             y="552.36218"
             x="300"
             height="200"
             width="75"
             id="rect3005-6"
             style="fill:#000000" />
          <rect
             y="552.36218"
             x="625"
             height="200"
             width="75"
             id="rect3005-7"
             style="fill:#000000" />
          <rect
             y="552.36218"
             x="375"
             height="200"
             width="250"
             id="rect3005-2-6"
             style="fill:#ffffff" />
        </g>
        <g
           transform="matrix(0.0629798,0,0,0.0629798,601.84807,23.081255)"
           id="layer1-40"
           inkscape:label="Ebene 1">
          <path
             sodipodi:nodetypes="ccsscccccccsscc"
             transform="translate(0,308.2677)"
             inkscape:connector-curvature="0"
             id="path6139"
             d="m 700,241.09448 c -75,0 -167.86342,0.77967 -200,0 -167.5,-2.5 -167.5,240 0,240 81.3286,0 47.5786,0 58.49645,0 10.91785,0 66.50355,0 66.50355,0 75,0 75,88 0,88 l -250,0 0,75 250,0 c 169.83333,0 180.62053,-237 0,-237 l -65.5,0 -59.5,0 c -60.5,0 -64,-88 0,-88 125,0 200,0 200,0 z"
             style="fill:#000000;fill-opacity:1;stroke:#000000;stroke-width:1px;stroke-linecap:butt;stroke-linejoin:miter;stroke-opacity:1" />
          <path
             transform="translate(0,308.2677)"
             inkscape:connector-curvature="0"
             id="path6143"
             d="m 375.54004,606.44723 0,-36.7599 128.31083,0 c 113.31864,0 128.92071,-0.0906 133.5305,-0.77504 18.93783,-2.812 33.27025,-12.02457 40.22417,-25.85522 3.05472,-6.07554 4.06686,-10.47208 4.11382,-17.86974 0.0318,-5.01814 -0.17617,-7.00455 -1.05548,-10.07833 -4.6982,-16.42329 -17.04755,-27.54012 -36.0062,-32.41263 -8.49907,-2.18432 -7.93458,-2.16784 -85.61764,-2.49886 -72.93189,-0.31078 -74.90809,-0.34425 -81.25,-1.37642 -19.55054,-3.18192 -34.21832,-8.4218 -48.76766,-17.42166 -24.90953,-15.4084 -43.30623,-41.62842 -50.52061,-72.00483 -4.36796,-18.39143 -4.15737,-42.30673 0.53189,-60.40552 3.1773,-12.26316 9.10893,-25.97996 15.37384,-35.55175 19.02384,-29.0654 48.59078,-46.38214 86.63254,-50.73886 3.24785,-0.37196 38.46933,-0.57833 111.37501,-0.65257 l 106.62501,-0.10857 -1e-5,38.10925 -10e-6,38.10925 -103.875,0.18844 c -76.0692,0.13799 -104.74497,0.34421 -107.125,0.7704 -14.59861,2.61417 -23.42804,6.86067 -31.75,15.2701 -5.65567,5.71513 -8.77905,10.91617 -10.84109,18.05256 -1.66661,5.76786 -1.64614,16.30756 0.0422,21.75 5.16095,16.63623 17.98199,27.40212 38.25674,32.1244 4.48274,1.04409 5.52258,1.06216 79.54212,1.38235 79.48023,0.34382 78.47745,0.31408 92.5,2.74352 28.06571,4.86246 51.18626,16.48156 68.78567,34.56784 19.40119,19.93791 29.91728,45.09744 30.79729,73.68189 0.48842,15.86464 -1.11414,27.2504 -5.8733,41.72836 -9.6928,29.48668 -30.35601,53.69959 -57.70966,67.62351 -13.74539,6.99686 -26.34369,10.97784 -43.5,13.7457 l -7,1.12933 -132.875,0.14645 -132.87502,0.14646 0,-36.75991 z"
             style="opacity:0;fill:#000000;fill-opacity:1" />
          <path
             transform="translate(0,308.2677)"
             inkscape:connector-curvature="0"
             id="path6145"
             d="m 375.54004,606.44723 0,-36.7599 128.31083,0 c 113.31864,0 128.92071,-0.0906 133.5305,-0.77504 18.93783,-2.812 33.27025,-12.02457 40.22417,-25.85522 3.05472,-6.07554 4.06686,-10.47208 4.11382,-17.86974 0.0318,-5.01814 -0.17617,-7.00455 -1.05548,-10.07833 -4.6982,-16.42329 -17.04755,-27.54012 -36.0062,-32.41263 -8.49907,-2.18432 -7.93458,-2.16784 -85.61764,-2.49886 -72.93189,-0.31078 -74.90809,-0.34425 -81.25,-1.37642 -19.55054,-3.18192 -34.21832,-8.4218 -48.76766,-17.42166 -24.90953,-15.4084 -43.30623,-41.62842 -50.52061,-72.00483 -4.36796,-18.39143 -4.15737,-42.30673 0.53189,-60.40552 3.1773,-12.26316 9.10893,-25.97996 15.37384,-35.55175 19.02384,-29.0654 48.59078,-46.38214 86.63254,-50.73886 3.24785,-0.37196 38.46933,-0.57833 111.37501,-0.65257 l 106.62501,-0.10857 -1e-5,38.10925 -10e-6,38.10925 -103.875,0.18844 c -76.0692,0.13799 -104.74497,0.34421 -107.125,0.7704 -14.59861,2.61417 -23.42804,6.86067 -31.75,15.2701 -5.65567,5.71513 -8.77905,10.91617 -10.84109,18.05256 -1.66661,5.76786 -1.64614,16.30756 0.0422,21.75 5.16095,16.63623 17.98199,27.40212 38.25674,32.1244 4.48274,1.04409 5.52258,1.06216 79.54212,1.38235 79.48023,0.34382 78.47745,0.31408 92.5,2.74352 28.06571,4.86246 51.18626,16.48156 68.78567,34.56784 19.40119,19.93791 29.91728,45.09744 30.79729,73.68189 0.48842,15.86464 -1.11414,27.2504 -5.8733,41.72836 -9.6928,29.48668 -30.35601,53.69959 -57.70966,67.62351 -13.74539,6.99686 -26.34369,10.97784 -43.5,13.7457 l -7,1.12933 -132.875,0.14645 -132.87502,0.14646 0,-36.75991 z"
             style="opacity:0;fill:#000000;fill-opacity:1" />
          <path
             transform="translate(0,308.2677)"
             inkscape:connector-curvature="0"
             id="path6147"
             d=""
             style="opacity:0;fill:#000000;fill-opacity:1" />
          <path
             transform="translate(0,308.2677)"
             inkscape:connector-curvature="0"
             id="path6149"
             d="m 375.54004,606.44723 0,-36.7599 128.31083,0 c 113.31864,0 128.92071,-0.0906 133.5305,-0.77504 18.93783,-2.812 33.27025,-12.02457 40.22417,-25.85522 3.05472,-6.07554 4.06686,-10.47208 4.11382,-17.86974 0.0318,-5.01814 -0.17617,-7.00455 -1.05548,-10.07833 -4.6982,-16.42329 -17.04755,-27.54012 -36.0062,-32.41263 -8.49907,-2.18432 -7.93458,-2.16784 -85.61764,-2.49886 -72.93189,-0.31078 -74.90809,-0.34425 -81.25,-1.37642 -19.55054,-3.18192 -34.21832,-8.4218 -48.76766,-17.42166 -24.90953,-15.4084 -43.30623,-41.62842 -50.52061,-72.00483 -4.36796,-18.39143 -4.15737,-42.30673 0.53189,-60.40552 3.1773,-12.26316 9.10893,-25.97996 15.37384,-35.55175 19.02384,-29.0654 48.59078,-46.38214 86.63254,-50.73886 3.24785,-0.37196 38.46933,-0.57833 111.37501,-0.65257 l 106.62501,-0.10857 -1e-5,38.10925 -10e-6,38.10925 -103.875,0.18844 c -76.0692,0.13799 -104.74497,0.34421 -107.125,0.7704 -14.59861,2.61417 -23.42804,6.86067 -31.75,15.2701 -5.65567,5.71513 -8.77905,10.91617 -10.84109,18.05256 -1.66661,5.76786 -1.64614,16.30756 0.0422,21.75 5.16095,16.63623 17.98199,27.40212 38.25674,32.1244 4.48274,1.04409 5.52258,1.06216 79.54212,1.38235 79.48023,0.34382 78.47745,0.31408 92.5,2.74352 28.06571,4.86246 51.18626,16.48156 68.78567,34.56784 19.40119,19.93791 29.91728,45.09744 30.79729,73.68189 0.48842,15.86464 -1.11414,27.2504 -5.8733,41.72836 -9.6928,29.48668 -30.35601,53.69959 -57.70966,67.62351 -13.74539,6.99686 -26.34369,10.97784 -43.5,13.7457 l -7,1.12933 -132.875,0.14645 -132.87502,0.14646 0,-36.75991 z"
             style="opacity:0;fill:#000000;fill-opacity:1" />
        </g>
        <g
           transform="matrix(0.10639187,0,0,0.10639187,619.48499,-1.5854892)"
           id="layer1-9"
           inkscape:label="Ebene 1">
          <path
             transform="translate(0,308.2677)"
             inkscape:connector-curvature="0"
             id="path6143-2"
             d="m 375.54004,606.44723 0,-36.7599 128.31083,0 c 113.31864,0 128.92071,-0.0906 133.5305,-0.77504 18.93783,-2.812 33.27025,-12.02457 40.22417,-25.85522 3.05472,-6.07554 4.06686,-10.47208 4.11382,-17.86974 0.0318,-5.01814 -0.17617,-7.00455 -1.05548,-10.07833 -4.6982,-16.42329 -17.04755,-27.54012 -36.0062,-32.41263 -8.49907,-2.18432 -7.93458,-2.16784 -85.61764,-2.49886 -72.93189,-0.31078 -74.90809,-0.34425 -81.25,-1.37642 -19.55054,-3.18192 -34.21832,-8.4218 -48.76766,-17.42166 -24.90953,-15.4084 -43.30623,-41.62842 -50.52061,-72.00483 -4.36796,-18.39143 -4.15737,-42.30673 0.53189,-60.40552 3.1773,-12.26316 9.10893,-25.97996 15.37384,-35.55175 19.02384,-29.0654 48.59078,-46.38214 86.63254,-50.73886 3.24785,-0.37196 38.46933,-0.57833 111.37501,-0.65257 l 106.62501,-0.10857 -1e-5,38.10925 -10e-6,38.10925 -103.875,0.18844 c -76.0692,0.13799 -104.74497,0.34421 -107.125,0.7704 -14.59861,2.61417 -23.42804,6.86067 -31.75,15.2701 -5.65567,5.71513 -8.77905,10.91617 -10.84109,18.05256 -1.66661,5.76786 -1.64614,16.30756 0.0422,21.75 5.16095,16.63623 17.98199,27.40212 38.25674,32.1244 4.48274,1.04409 5.52258,1.06216 79.54212,1.38235 79.48023,0.34382 78.47745,0.31408 92.5,2.74352 28.06571,4.86246 51.18626,16.48156 68.78567,34.56784 19.40119,19.93791 29.91728,45.09744 30.79729,73.68189 0.48842,15.86464 -1.11414,27.2504 -5.8733,41.72836 -9.6928,29.48668 -30.35601,53.69959 -57.70966,67.62351 -13.74539,6.99686 -26.34369,10.97784 -43.5,13.7457 l -7,1.12933 -132.875,0.14645 -132.87502,0.14646 0,-36.75991 z"
             style="opacity:0;fill:#000000;fill-opacity:1" />
          <path
             transform="translate(0,308.2677)"
             inkscape:connector-curvature="0"
             id="path6145-2"
             d="m 375.54004,606.44723 0,-36.7599 128.31083,0 c 113.31864,0 128.92071,-0.0906 133.5305,-0.77504 18.93783,-2.812 33.27025,-12.02457 40.22417,-25.85522 3.05472,-6.07554 4.06686,-10.47208 4.11382,-17.86974 0.0318,-5.01814 -0.17617,-7.00455 -1.05548,-10.07833 -4.6982,-16.42329 -17.04755,-27.54012 -36.0062,-32.41263 -8.49907,-2.18432 -7.93458,-2.16784 -85.61764,-2.49886 -72.93189,-0.31078 -74.90809,-0.34425 -81.25,-1.37642 -19.55054,-3.18192 -34.21832,-8.4218 -48.76766,-17.42166 -24.90953,-15.4084 -43.30623,-41.62842 -50.52061,-72.00483 -4.36796,-18.39143 -4.15737,-42.30673 0.53189,-60.40552 3.1773,-12.26316 9.10893,-25.97996 15.37384,-35.55175 19.02384,-29.0654 48.59078,-46.38214 86.63254,-50.73886 3.24785,-0.37196 38.46933,-0.57833 111.37501,-0.65257 l 106.62501,-0.10857 -1e-5,38.10925 -10e-6,38.10925 -103.875,0.18844 c -76.0692,0.13799 -104.74497,0.34421 -107.125,0.7704 -14.59861,2.61417 -23.42804,6.86067 -31.75,15.2701 -5.65567,5.71513 -8.77905,10.91617 -10.84109,18.05256 -1.66661,5.76786 -1.64614,16.30756 0.0422,21.75 5.16095,16.63623 17.98199,27.40212 38.25674,32.1244 4.48274,1.04409 5.52258,1.06216 79.54212,1.38235 79.48023,0.34382 78.47745,0.31408 92.5,2.74352 28.06571,4.86246 51.18626,16.48156 68.78567,34.56784 19.40119,19.93791 29.91728,45.09744 30.79729,73.68189 0.48842,15.86464 -1.11414,27.2504 -5.8733,41.72836 -9.6928,29.48668 -30.35601,53.69959 -57.70966,67.62351 -13.74539,6.99686 -26.34369,10.97784 -43.5,13.7457 l -7,1.12933 -132.875,0.14645 -132.87502,0.14646 0,-36.75991 z"
             style="opacity:0;fill:#000000;fill-opacity:1" />
          <path
             transform="translate(0,308.2677)"
             inkscape:connector-curvature="0"
             id="path6147-0"
             d=""
             style="opacity:0;fill:#000000;fill-opacity:1" />
          <path
             transform="translate(0,308.2677)"
             inkscape:connector-curvature="0"
             id="path6149-7"
             d="m 375.54004,606.44723 0,-36.7599 128.31083,0 c 113.31864,0 128.92071,-0.0906 133.5305,-0.77504 18.93783,-2.812 33.27025,-12.02457 40.22417,-25.85522 3.05472,-6.07554 4.06686,-10.47208 4.11382,-17.86974 0.0318,-5.01814 -0.17617,-7.00455 -1.05548,-10.07833 -4.6982,-16.42329 -17.04755,-27.54012 -36.0062,-32.41263 -8.49907,-2.18432 -7.93458,-2.16784 -85.61764,-2.49886 -72.93189,-0.31078 -74.90809,-0.34425 -81.25,-1.37642 -19.55054,-3.18192 -34.21832,-8.4218 -48.76766,-17.42166 -24.90953,-15.4084 -43.30623,-41.62842 -50.52061,-72.00483 -4.36796,-18.39143 -4.15737,-42.30673 0.53189,-60.40552 3.1773,-12.26316 9.10893,-25.97996 15.37384,-35.55175 19.02384,-29.0654 48.59078,-46.38214 86.63254,-50.73886 3.24785,-0.37196 38.46933,-0.57833 111.37501,-0.65257 l 106.62501,-0.10857 -1e-5,38.10925 -10e-6,38.10925 -103.875,0.18844 c -76.0692,0.13799 -104.74497,0.34421 -107.125,0.7704 -14.59861,2.61417 -23.42804,6.86067 -31.75,15.2701 -5.65567,5.71513 -8.77905,10.91617 -10.84109,18.05256 -1.66661,5.76786 -1.64614,16.30756 0.0422,21.75 5.16095,16.63623 17.98199,27.40212 38.25674,32.1244 4.48274,1.04409 5.52258,1.06216 79.54212,1.38235 79.48023,0.34382 78.47745,0.31408 92.5,2.74352 28.06571,4.86246 51.18626,16.48156 68.78567,34.56784 19.40119,19.93791 29.91728,45.09744 30.79729,73.68189 0.48842,15.86464 -1.11414,27.2504 -5.8733,41.72836 -9.6928,29.48668 -30.35601,53.69959 -57.70966,67.62351 -13.74539,6.99686 -26.34369,10.97784 -43.5,13.7457 l -7,1.12933 -132.875,0.14645 -132.87502,0.14646 0,-36.75991 z"
             style="opacity:0;fill:#000000;fill-opacity:1" />
          <path
             sodipodi:nodetypes="ccccccccccccc"
             inkscape:connector-curvature="0"
             id="path8689-8"
             d="M 300,952.36218 457.34182,727.65477 332.5,549.36218 l 85.31636,0 82.18364,117.3704 82,-117.3704 118,0 -140.04151,200 140.04151,203 -85.31636,0 L 516.25,811.78437 417.81636,952.36218 z"
             style="fill:#2c5aa0;fill-opacity:1;stroke:none" />
        </g>
        <text
           xml:space="preserve"
           style="font-size:40px;font-style:normal;font-weight:normal;line-height:125%;letter-spacing:0px;word-spacing:0px;fill:#000000;fill-opacity:1;stroke:none;font-family:Sans"
           x="613"
           y="99.862183"
           id="text11253"
           sodipodi:linespacing="125%"><tspan
             sodipodi:role="line"
             id="tspan11255"
             x="613"
             y="99.862183"
             style="font-size:12px;font-style:normal;font-variant:normal;font-weight:normal;font-stretch:normal;font-family:LiHei Pro;-inkscape-font-specification:LiHei Pro">GmbH</tspan></text>
      </g>
      <flowRoot
         xml:space="preserve"
         id="flowRoot11400"
         style="fill:black;stroke:none;stroke-opacity:1;stroke-width:1px;stroke-linejoin:miter;stroke-linecap:butt;fill-opacity:1;font-family:Sans;font-style:normal;font-weight:normal;font-size:40px;line-height:125%;letter-spacing:0px;word-spacing:0px"><flowRegion
           id="flowRegion11402"><rect
             id="rect11404"
             width="512"
             height="236.5"
             x="341"
             y="-56.137817" /></flowRegion><flowPara
           id="flowPara11406"></flowPara></flowRoot>    </g>
  </g>
</svg>
