<?xml version="1.0" encoding="UTF-8" standalone="no"?>
<!-- Created with Inkscape (http://www.inkscape.org/) -->

<svg
   xmlns:osb="http://www.openswatchbook.org/uri/2009/osb"
   xmlns:dc="http://purl.org/dc/elements/1.1/"
   xmlns:cc="http://creativecommons.org/ns#"
   xmlns:rdf="http://www.w3.org/1999/02/22-rdf-syntax-ns#"
   xmlns:svg="http://www.w3.org/2000/svg"
   xmlns="http://www.w3.org/2000/svg"
   xmlns:sodipodi="http://sodipodi.sourceforge.net/DTD/sodipodi-0.dtd"
   xmlns:inkscape="http://www.inkscape.org/namespaces/inkscape"
   width="1052.3622"
   height="744.09448"
   id="svg11450"
   version="1.1"
   inkscape:version="0.48.5 r10040"
   sodipodi:docname="vcSeite_1.svg"
   inkscape:export-filename="/Users/cam/Documents/Projektordner/V1/vcMarschalekClaus.pdf.png"
   inkscape:export-xdpi="600"
   inkscape:export-ydpi="600">
  <defs
     id="defs3">
    <linearGradient
       id="linearGradient13024"
       osb:paint="solid">
      <stop
         style="stop-color:#000000;stop-opacity:1;"
         offset="0"
         id="stop13026" />
    </linearGradient>
    <linearGradient
       id="linearGradient9209-1"
       osb:paint="solid">
      <stop
         style="stop-color:#2c5aa0;stop-opacity:1;"
         offset="0"
         id="stop9211-2" />
    </linearGradient>
    <linearGradient
       id="linearGradient9203-4"
       osb:paint="solid">
      <stop
         style="stop-color:#2c5aa0;stop-opacity:1;"
         offset="0"
         id="stop9205-9" />
    </linearGradient>
    <linearGradient
       id="linearGradient6129-18"
       osb:paint="solid">
      <stop
         style="stop-color:#000000;stop-opacity:1;"
         offset="0"
         id="stop6131-5" />
    </linearGradient>
    <linearGradient
       id="linearGradient9209"
       osb:paint="solid">
      <stop
         style="stop-color:#2c5aa0;stop-opacity:1;"
         offset="0"
         id="stop9211" />
    </linearGradient>
    <linearGradient
       id="linearGradient9203"
       osb:paint="solid">
      <stop
         style="stop-color:#2c5aa0;stop-opacity:1;"
         offset="0"
         id="stop9205" />
    </linearGradient>
    <linearGradient
       id="linearGradient6129-1"
       osb:paint="solid">
      <stop
         style="stop-color:#000000;stop-opacity:1;"
         offset="0"
         id="stop6131-8" />
    </linearGradient>
    <linearGradient
       id="linearGradient6129"
       osb:paint="solid">
      <stop
         style="stop-color:#000000;stop-opacity:1;"
         offset="0"
         id="stop6131" />
    </linearGradient>
    <linearGradient
       osb:paint="solid"
       id="linearGradient6129-9">
      <stop
         id="stop6131-3"
         offset="0"
         style="stop-color:#000000;stop-opacity:1;" />
    </linearGradient>
    <linearGradient
       osb:paint="solid"
       id="linearGradient6129-1-1">
      <stop
         id="stop6131-8-2"
         offset="0"
         style="stop-color:#000000;stop-opacity:1;" />
    </linearGradient>
    <linearGradient
       osb:paint="solid"
       id="linearGradient9203-5">
      <stop
         id="stop9205-96"
         offset="0"
         style="stop-color:#2c5aa0;stop-opacity:1;" />
    </linearGradient>
    <linearGradient
       osb:paint="solid"
       id="linearGradient9209-8">
      <stop
         id="stop9211-8"
         offset="0"
         style="stop-color:#2c5aa0;stop-opacity:1;" />
    </linearGradient>
    <linearGradient
       osb:paint="solid"
       id="linearGradient6129-18-4">
      <stop
         id="stop6131-5-0"
         offset="0"
         style="stop-color:#000000;stop-opacity:1;" />
    </linearGradient>
    <linearGradient
       osb:paint="solid"
       id="linearGradient9203-4-5">
      <stop
         id="stop9205-9-9"
         offset="0"
         style="stop-color:#2c5aa0;stop-opacity:1;" />
    </linearGradient>
    <linearGradient
       osb:paint="solid"
       id="linearGradient9209-1-8">
      <stop
         id="stop9211-2-0"
         offset="0"
         style="stop-color:#2c5aa0;stop-opacity:1;" />
    </linearGradient>
  </defs>
  <sodipodi:namedview
     id="base"
     pagecolor="#ffffff"
     bordercolor="#666666"
     borderopacity="1.0"
     inkscape:pageopacity="0.0"
     inkscape:pageshadow="2"
     inkscape:zoom="2"
     inkscape:cx="296.66667"
     inkscape:cy="270.96595"
     inkscape:document-units="mm"
     inkscape:current-layer="layer1"
     showgrid="false"
     showguides="true"
     inkscape:guide-bbox="true"
     units="mm"
     inkscape:window-width="2560"
     inkscape:window-height="1392"
     inkscape:window-x="0"
     inkscape:window-y="0"
     inkscape:window-maximized="1">
    <sodipodi:guide
       orientation="1,0"
       position="336.61417,422.25"
       id="guide11813" />
    <sodipodi:guide
       orientation="0,1"
       position="303.75,7.5"
       id="guide11815" />
    <sodipodi:guide
       orientation="1,0"
       position="7.75,37.25"
       id="guide11817" />
    <sodipodi:guide
       orientation="0,1"
       position="317.25,93.5"
       id="guide11819" />
    <sodipodi:guide
       orientation="1,0"
       position="53,116"
       id="guide11837" />
    <sodipodi:guide
       orientation="0,1"
       position="98.25,45.75"
       id="guide11841" />
    <sodipodi:guide
       orientation="0,1"
       position="366.5,511.5"
       id="guide12464" />
    <sodipodi:guide
       orientation="1,0"
       position="639.92126,489.00118"
       id="guide12466" />
    <sodipodi:guide
       orientation="0,1"
       position="239.5,283.46457"
       id="guide12510" />
    <sodipodi:guide
       orientation="0,1"
       position="420,263"
       id="guide13495" />
    <sodipodi:guide
       orientation="1,0"
       position="621,375.25"
       id="guide13579" />
    <sodipodi:guide
       orientation="0,1"
       position="727,328"
       id="guide13587" />
    <sodipodi:guide
       orientation="1,0"
       position="349.5,360.5"
       id="guide13589" />
  </sodipodi:namedview>
  <metadata
     id="metadata11454">
    <rdf:RDF>
      <cc:Work
         rdf:about="">
        <dc:format>image/svg+xml</dc:format>
        <dc:type
           rdf:resource="http://purl.org/dc/dcmitype/StillImage" />
        <dc:title></dc:title>
      </cc:Work>
    </rdf:RDF>
  </metadata>
  <g
     inkscape:label="Layer 1"
     inkscape:groupmode="layer"
     id="layer1"
     transform="translate(0,552.75591)">
    <flowRoot
       style="font-size:40px;font-style:normal;font-weight:normal;line-height:125%;letter-spacing:0px;word-spacing:0px;fill:#000000;fill-opacity:1;stroke:none;font-family:Sans"
       id="flowRoot11400"
       xml:space="preserve"
       transform="matrix(0.69751986,0,0,0.69751986,-191.77185,-29.015433)"><flowRegion
         id="flowRegion11402"><rect
           y="-56.137817"
           x="341"
           height="236.5"
           width="512"
           id="rect11404" /></flowRegion><flowPara
         id="flowPara11406" /></flowRoot>    <flowRoot
       xml:space="preserve"
       id="flowRoot11691"
       style="font-size:12px;font-style:normal;font-variant:normal;font-weight:normal;font-stretch:normal;line-height:125%;letter-spacing:0px;word-spacing:0px;fill:#000000;fill-opacity:1;stroke:none;font-family:LiHei Pro;-inkscape-font-specification:LiHei Pro"><flowRegion
         id="flowRegion11693"><rect
           id="rect11695"
           width="67.5"
           height="38.333332"
           x="9.166667"
           y="132.17191" /></flowRegion><flowPara
         id="flowPara11697"></flowPara></flowRoot>    <flowRoot
       xml:space="preserve"
       id="flowRoot11825"
       style="font-size:12px;font-style:normal;font-variant:normal;font-weight:normal;font-stretch:normal;line-height:125%;letter-spacing:0px;word-spacing:0px;fill:#000000;fill-opacity:1;stroke:none;font-family:LiHei Pro;-inkscape-font-specification:LiHei Pro"><flowRegion
         id="flowRegion11827"><rect
           id="rect11829"
           width="8"
           height="15.25"
           x="136.5"
           y="79.588577" /></flowRegion><flowPara
         id="flowPara11831"></flowPara></flowRoot>    <flowRoot
       xml:space="preserve"
       id="flowRoot11851"
       style="font-size:12px;font-style:normal;font-variant:normal;font-weight:normal;font-stretch:normal;line-height:125%;letter-spacing:0px;word-spacing:0px;fill:#000000;fill-opacity:1;stroke:none;font-family:LiHei Pro;-inkscape-font-specification:LiHei Pro"><flowRegion
         id="flowRegion11853"><rect
           id="rect11855"
           width="348.25"
           height="245.75"
           x="-24.25"
           y="-30.911423" /></flowRegion><flowPara
         id="flowPara11857"></flowPara></flowRoot>    <path
       style="opacity:0;fill:#000000;fill-opacity:1"
       d=""
       id="path6147-0"
       inkscape:connector-curvature="0" />
    <flowRoot
       style="font-size:40px;font-style:normal;font-weight:normal;line-height:125%;letter-spacing:0px;word-spacing:0px;fill:#000000;fill-opacity:1;stroke:none;font-family:Sans"
       id="flowRoot11400-6"
       xml:space="preserve"
       transform="matrix(0.69751986,0,0,0.69751986,138.62026,-113.35312)"><flowRegion
         id="flowRegion11402-7"><rect
           y="-56.137817"
           x="341"
           height="236.5"
           width="512"
           id="rect11404-0" /></flowRegion><flowPara
         id="flowPara11406-5" /></flowRoot>    <flowRoot
       xml:space="preserve"
       id="flowRoot11691-8"
       style="font-size:12px;font-style:normal;font-variant:normal;font-weight:normal;font-stretch:normal;line-height:125%;letter-spacing:0px;word-spacing:0px;fill:#000000;fill-opacity:1;stroke:none;font-family:LiHei Pro;-inkscape-font-specification:LiHei Pro"
       transform="translate(330.39211,-84.33769)"><flowRegion
         id="flowRegion11693-4"><rect
           id="rect11695-6"
           width="67.5"
           height="38.333332"
           x="9.166667"
           y="132.17191" /></flowRegion><flowPara
         id="flowPara11697-6" /></flowRoot>    <flowRoot
       xml:space="preserve"
       id="flowRoot11825-4"
       style="font-size:12px;font-style:normal;font-variant:normal;font-weight:normal;font-stretch:normal;line-height:125%;letter-spacing:0px;word-spacing:0px;fill:#000000;fill-opacity:1;stroke:none;font-family:LiHei Pro;-inkscape-font-specification:LiHei Pro"
       transform="translate(330.39211,-84.33769)"><flowRegion
         id="flowRegion11827-0"><rect
           id="rect11829-5"
           width="8"
           height="15.25"
           x="136.5"
           y="79.588577" /></flowRegion><flowPara
         id="flowPara11831-1" /></flowRoot>    <flowRoot
       xml:space="preserve"
       id="flowRoot11851-2"
       style="font-size:12px;font-style:normal;font-variant:normal;font-weight:normal;font-stretch:normal;line-height:125%;letter-spacing:0px;word-spacing:0px;fill:#000000;fill-opacity:1;stroke:none;font-family:LiHei Pro;-inkscape-font-specification:LiHei Pro"
       transform="translate(330.39211,-84.33769)"><flowRegion
         id="flowRegion11853-7"><rect
           id="rect11855-4"
           width="348.25"
           height="245.75"
           x="-24.25"
           y="-30.911423" /></flowRegion><flowPara
         id="flowPara11857-1" /></flowRoot>    <path
       style="opacity:0;fill:#000000;fill-opacity:1"
       d=""
       id="path6147-0-0"
       inkscape:connector-curvature="0" />
    <text
       xml:space="preserve"
       style="font-size:12px;font-style:normal;font-variant:normal;font-weight:normal;font-stretch:normal;text-align:start;line-height:125%;letter-spacing:0px;word-spacing:0px;writing-mode:lr-tb;text-anchor:start;fill:#000000;fill-opacity:1;stroke:none;font-family:Verdana;-inkscape-font-specification:Verdana"
       x="502.98093"
       y="85.83857"
       id="text11683-3"
       sodipodi:linespacing="125%"
       inkscape:export-filename="/Users/cam/Documents/Projektordner/V1/Seite2.png"
       inkscape:export-xdpi="600"
       inkscape:export-ydpi="600"><tspan
         sodipodi:role="line"
         id="tspan11807"
         style="font-size:9px;font-style:normal;font-variant:normal;font-weight:normal;font-stretch:normal;text-align:start;line-height:125%;writing-mode:lr-tb;text-anchor:start;font-family:Verdana;-inkscape-font-specification:Verdana"
         x="502.98093"
         y="85.83857">++49 (0)170 4763628</tspan><tspan
         sodipodi:role="line"
         id="tspan11811"
         style="font-size:9px;font-style:normal;font-variant:normal;font-weight:normal;font-stretch:normal;text-align:start;line-height:125%;writing-mode:lr-tb;text-anchor:start;font-family:Verdana;-inkscape-font-specification:Verdana"
         x="502.98093"
         y="97.08857">marschalek@abakusx.de</tspan></text>
    <text
       xml:space="preserve"
       style="font-size:18px;font-style:normal;font-variant:normal;font-weight:normal;font-stretch:normal;text-align:start;line-height:125%;letter-spacing:0px;word-spacing:0px;writing-mode:lr-tb;text-anchor:start;fill:#000000;fill-opacity:1;stroke:none;font-family:Verdana;-inkscape-font-specification:Verdana"
       x="383.39212"
       y="13.500887"
       id="text11821"
       sodipodi:linespacing="125%"
       inkscape:export-filename="/Users/cam/Documents/Projektordner/V1/Seite2.png"
       inkscape:export-xdpi="600"
       inkscape:export-ydpi="600"><tspan
         y="13.500887"
         x="383.39212"
         sodipodi:role="line"
         id="tspan11843"
         style="font-size:20px;font-style:normal;font-variant:normal;font-weight:normal;font-stretch:normal;text-align:start;line-height:125%;writing-mode:lr-tb;text-anchor:start;font-family:Verdana;-inkscape-font-specification:Verdana">Claus Marschalek </tspan><tspan
         y="26.092287"
         x="383.39212"
         sodipodi:role="line"
         id="tspan11845"
         style="font-size:8px;font-style:normal;font-variant:normal;font-weight:normal;font-stretch:normal;text-align:start;line-height:125%;writing-mode:lr-tb;text-anchor:start;fill:#666666;font-family:Verdana;-inkscape-font-specification:Verdana">managing director</tspan></text>
    <text
       xml:space="preserve"
       style="font-size:12px;font-style:normal;font-variant:normal;font-weight:normal;font-stretch:normal;line-height:125%;letter-spacing:0px;word-spacing:0px;fill:#000000;fill-opacity:1;stroke:none;font-family:Verdana;-inkscape-font-specification:Verdana"
       x="349.5"
       y="-140.66142"
       id="text11683"
       sodipodi:linespacing="125%"
       inkscape:export-filename="/Users/cam/Documents/Projektordner/V1/Seite1.png"
       inkscape:export-xdpi="600"
       inkscape:export-ydpi="600"><tspan
         sodipodi:role="line"
         id="tspan11685"
         x="349.5"
         y="-140.66142"
         style="font-size:9px;font-style:normal;font-variant:normal;font-weight:normal;font-stretch:normal;text-align:start;line-height:125%;writing-mode:lr-tb;text-anchor:start;font-family:Verdana;-inkscape-font-specification:Verdana">abakus x gmbh</tspan><tspan
         sodipodi:role="line"
         x="349.5"
         y="-129.41142"
         style="font-size:9px;font-style:normal;font-variant:normal;font-weight:normal;font-stretch:normal;text-align:start;line-height:125%;writing-mode:lr-tb;text-anchor:start;font-family:Verdana;-inkscape-font-specification:Verdana"
         id="tspan11839">Königsteinerstr. 47</tspan><tspan
         sodipodi:role="line"
         x="349.5"
         y="-118.16142"
         id="tspan11687"
         style="font-size:9px;font-style:normal;font-variant:normal;font-weight:normal;font-stretch:normal;text-align:start;line-height:125%;writing-mode:lr-tb;text-anchor:start;font-family:Verdana;-inkscape-font-specification:Verdana">65929 Frankfurt am Main</tspan><tspan
         sodipodi:role="line"
         x="349.5"
         y="-106.91142"
         id="tspan11689"
         style="font-size:9px;font-style:normal;font-variant:normal;font-weight:normal;font-stretch:normal;text-align:start;line-height:125%;writing-mode:lr-tb;text-anchor:start;font-family:Verdana;-inkscape-font-specification:Verdana">Germany</tspan></text>
    <rect
       style="opacity:0;fill:#666666;fill-opacity:1;stroke:#000000;stroke-opacity:1"
       id="rect12512"
       width="275.38583"
       height="191.33858"
       x="336.61417"
       y="-283.4646"
       inkscape:export-filename="/Users/cam/Documents/Projektordner/V1/Seite1.png"
       inkscape:export-xdpi="600"
       inkscape:export-ydpi="600" />
    <g
       transform="translate(-72.71545,-320.0551)"
       id="g11408"
       inkscape:export-filename="/Users/cam/Documents/Projektordner/V1/Seite1.png"
       inkscape:export-xdpi="600"
       inkscape:export-ydpi="600">
      <g
         transform="matrix(0.06298228,0,0,0.06298228,552.30413,23.434572)"
         id="layer1-36"
         inkscape:label="Ebene 1">
        <g
           transform="matrix(0,1,-1,0,1252.3622,252.36218)"
           inkscape:label="Ebene 1"
           id="layer1-1-8">
          <path
             sodipodi:type="arc"
             style="fill:#000000"
             id="path2993-8"
             sodipodi:cx="500"
             sodipodi:cy="444.09448"
             sodipodi:rx="200"
             sodipodi:ry="200"
             d="m 700,444.09448 c 0,110.45695 -89.54305,200 -200,200 -110.45695,0 -200,-89.54305 -200,-200 0,-110.45695 89.54305,-200 200,-200 110.45695,0 200,89.54305 200,200 z"
             transform="translate(0,308.2677)" />
          <path
             sodipodi:type="arc"
             style="fill:#ffffff"
             id="path3003-8"
             sodipodi:cx="500"
             sodipodi:cy="444.09448"
             sodipodi:rx="125"
             sodipodi:ry="125"
             d="m 625,444.09448 c 0,69.0356 -55.96441,125 -125,125 -69.03559,0 -125,-55.9644 -125,-125 0,-69.03559 55.96441,-125 125,-125 69.03559,0 125,55.96441 125,125 z"
             transform="translate(0,308.2677)" />
          <rect
             style="fill:#000000"
             id="rect3005-4-1"
             width="75"
             height="200"
             x="300"
             y="552.36218" />
          <rect
             style="fill:#000000"
             id="rect3005-7-6"
             width="75"
             height="200"
             x="625"
             y="552.36218" />
          <rect
             style="fill:#ffffff"
             id="rect3005-2-4"
             width="250"
             height="200"
             x="375"
             y="552.36218" />
        </g>
        <rect
           y="452.36218"
           x="300"
           height="500"
           width="75"
           id="rect3005-9"
           style="fill:#2c5aa0;fill-opacity:1" />
      </g>
      <g
         transform="matrix(0.0629798,0,0,0.0629798,470.67749,23.435472)"
         id="layer1-7"
         inkscape:label="Ebene 1">
        <path
           transform="translate(0,308.2677)"
           d="m 700,444.09448 c 0,110.45695 -89.54305,200 -200,200 -110.45695,0 -200,-89.54305 -200,-200 0,-110.45695 89.54305,-200 200,-200 110.45695,0 200,89.54305 200,200 z"
           sodipodi:ry="200"
           sodipodi:rx="200"
           sodipodi:cy="444.09448"
           sodipodi:cx="500"
           id="path2993"
           style="fill:#000000"
           sodipodi:type="arc" />
        <path
           transform="translate(0,308.2677)"
           d="m 625,444.09448 c 0,69.0356 -55.96441,125 -125,125 -69.03559,0 -125,-55.9644 -125,-125 0,-69.03559 55.96441,-125 125,-125 69.03559,0 125,55.96441 125,125 z"
           sodipodi:ry="125"
           sodipodi:rx="125"
           sodipodi:cy="444.09448"
           sodipodi:cx="500"
           id="path3003"
           style="fill:#ffffff"
           sodipodi:type="arc" />
        <rect
           y="552.36218"
           x="625"
           height="400"
           width="75"
           id="rect3005"
           style="fill:#000000" />
      </g>
      <g
         transform="matrix(0.0629798,0,0,0.0629798,497.4563,23.435472)"
         id="layer1-2"
         inkscape:label="Ebene 1">
        <path
           transform="translate(0,308.2677)"
           d="m 700,444.09448 c 0,110.45695 -89.54305,200 -200,200 -110.45695,0 -200,-89.54305 -200,-200 0,-110.45695 89.54305,-200 200,-200 110.45695,0 200,89.54305 200,200 z"
           sodipodi:ry="200"
           sodipodi:rx="200"
           sodipodi:cy="444.09448"
           sodipodi:cx="500"
           id="path2993-6"
           style="fill:#000000"
           sodipodi:type="arc" />
        <path
           transform="translate(0,308.2677)"
           d="m 625,444.09448 c 0,69.0356 -55.96441,125 -125,125 -69.03559,0 -125,-55.9644 -125,-125 0,-69.03559 55.96441,-125 125,-125 69.03559,0 125,55.96441 125,125 z"
           sodipodi:ry="125"
           sodipodi:rx="125"
           sodipodi:cy="444.09448"
           sodipodi:cx="500"
           id="path3003-6"
           style="fill:#ffffff"
           sodipodi:type="arc" />
        <rect
           y="452.36218"
           x="300"
           height="500"
           width="75"
           id="rect3005-2"
           style="fill:#000000" />
      </g>
      <g
         transform="matrix(0.0629798,0,0,0.0629798,524.23512,23.435472)"
         id="layer1-7-1"
         inkscape:label="Ebene 1">
        <path
           transform="translate(0,308.2677)"
           d="m 700,444.09448 c 0,110.45695 -89.54305,200 -200,200 -110.45695,0 -200,-89.54305 -200,-200 0,-110.45695 89.54305,-200 200,-200 110.45695,0 200,89.54305 200,200 z"
           sodipodi:ry="200"
           sodipodi:rx="200"
           sodipodi:cy="444.09448"
           sodipodi:cx="500"
           id="path2993-62"
           style="fill:#000000"
           sodipodi:type="arc" />
        <path
           transform="translate(0,308.2677)"
           d="m 625,444.09448 c 0,69.0356 -55.96441,125 -125,125 -69.03559,0 -125,-55.9644 -125,-125 0,-69.03559 55.96441,-125 125,-125 69.03559,0 125,55.96441 125,125 z"
           sodipodi:ry="125"
           sodipodi:rx="125"
           sodipodi:cy="444.09448"
           sodipodi:cx="500"
           id="path3003-3"
           style="fill:#ffffff"
           sodipodi:type="arc" />
        <rect
           y="552.36218"
           x="625"
           height="400"
           width="75"
           id="rect3005-0"
           style="fill:#000000" />
      </g>
      <g
         transform="matrix(0.0629798,0,0,0.0629798,579.79274,23.435472)"
         id="layer1-4"
         inkscape:label="Ebene 1">
        <path
           transform="translate(0,308.2677)"
           d="m 700,444.09448 c 0,110.45695 -89.54305,200 -200,200 -110.45695,0 -200,-89.54305 -200,-200 0,-110.45695 89.54305,-200 200,-200 110.45695,0 200,89.54305 200,200 z"
           sodipodi:ry="200"
           sodipodi:rx="200"
           sodipodi:cy="444.09448"
           sodipodi:cx="500"
           id="path2993-61"
           style="fill:#000000"
           sodipodi:type="arc" />
        <path
           transform="translate(0,308.2677)"
           d="m 625,444.09448 c 0,69.0356 -55.96441,125 -125,125 -69.03559,0 -125,-55.9644 -125,-125 0,-69.03559 55.96441,-125 125,-125 69.03559,0 125,55.96441 125,125 z"
           sodipodi:ry="125"
           sodipodi:rx="125"
           sodipodi:cy="444.09448"
           sodipodi:cx="500"
           id="path3003-63"
           style="fill:#ffffff"
           sodipodi:type="arc" />
        <rect
           y="552.36218"
           x="300"
           height="200"
           width="75"
           id="rect3005-6"
           style="fill:#000000" />
        <rect
           y="552.36218"
           x="625"
           height="200"
           width="75"
           id="rect3005-7"
           style="fill:#000000" />
        <rect
           y="552.36218"
           x="375"
           height="200"
           width="250"
           id="rect3005-2-6"
           style="fill:#ffffff" />
      </g>
      <g
         transform="matrix(0.0629798,0,0,0.0629798,601.84807,23.081255)"
         id="layer1-40"
         inkscape:label="Ebene 1">
        <path
           sodipodi:nodetypes="ccsscccccccsscc"
           transform="translate(0,308.2677)"
           inkscape:connector-curvature="0"
           id="path6139"
           d="m 700,241.09448 c -75,0 -167.86342,0.77967 -200,0 -167.5,-2.5 -167.5,240 0,240 81.3286,0 47.5786,0 58.49645,0 10.91785,0 66.50355,0 66.50355,0 75,0 75,88 0,88 l -250,0 0,75 250,0 c 169.83333,0 180.62053,-237 0,-237 l -65.5,0 -59.5,0 c -60.5,0 -64,-88 0,-88 125,0 200,0 200,0 z"
           style="fill:#000000;fill-opacity:1;stroke:#000000;stroke-width:1px;stroke-linecap:butt;stroke-linejoin:miter;stroke-opacity:1" />
        <path
           transform="translate(0,308.2677)"
           inkscape:connector-curvature="0"
           id="path6143"
           d="m 375.54004,606.44723 0,-36.7599 128.31083,0 c 113.31864,0 128.92071,-0.0906 133.5305,-0.77504 18.93783,-2.812 33.27025,-12.02457 40.22417,-25.85522 3.05472,-6.07554 4.06686,-10.47208 4.11382,-17.86974 0.0318,-5.01814 -0.17617,-7.00455 -1.05548,-10.07833 -4.6982,-16.42329 -17.04755,-27.54012 -36.0062,-32.41263 -8.49907,-2.18432 -7.93458,-2.16784 -85.61764,-2.49886 -72.93189,-0.31078 -74.90809,-0.34425 -81.25,-1.37642 -19.55054,-3.18192 -34.21832,-8.4218 -48.76766,-17.42166 -24.90953,-15.4084 -43.30623,-41.62842 -50.52061,-72.00483 -4.36796,-18.39143 -4.15737,-42.30673 0.53189,-60.40552 3.1773,-12.26316 9.10893,-25.97996 15.37384,-35.55175 19.02384,-29.0654 48.59078,-46.38214 86.63254,-50.73886 3.24785,-0.37196 38.46933,-0.57833 111.37501,-0.65257 l 106.62501,-0.10857 -1e-5,38.10925 -10e-6,38.10925 -103.875,0.18844 c -76.0692,0.13799 -104.74497,0.34421 -107.125,0.7704 -14.59861,2.61417 -23.42804,6.86067 -31.75,15.2701 -5.65567,5.71513 -8.77905,10.91617 -10.84109,18.05256 -1.66661,5.76786 -1.64614,16.30756 0.0422,21.75 5.16095,16.63623 17.98199,27.40212 38.25674,32.1244 4.48274,1.04409 5.52258,1.06216 79.54212,1.38235 79.48023,0.34382 78.47745,0.31408 92.5,2.74352 28.06571,4.86246 51.18626,16.48156 68.78567,34.56784 19.40119,19.93791 29.91728,45.09744 30.79729,73.68189 0.48842,15.86464 -1.11414,27.2504 -5.8733,41.72836 -9.6928,29.48668 -30.35601,53.69959 -57.70966,67.62351 -13.74539,6.99686 -26.34369,10.97784 -43.5,13.7457 l -7,1.12933 -132.875,0.14645 -132.87502,0.14646 0,-36.75991 z"
           style="opacity:0;fill:#000000;fill-opacity:1" />
        <path
           transform="translate(0,308.2677)"
           inkscape:connector-curvature="0"
           id="path6145"
           d="m 375.54004,606.44723 0,-36.7599 128.31083,0 c 113.31864,0 128.92071,-0.0906 133.5305,-0.77504 18.93783,-2.812 33.27025,-12.02457 40.22417,-25.85522 3.05472,-6.07554 4.06686,-10.47208 4.11382,-17.86974 0.0318,-5.01814 -0.17617,-7.00455 -1.05548,-10.07833 -4.6982,-16.42329 -17.04755,-27.54012 -36.0062,-32.41263 -8.49907,-2.18432 -7.93458,-2.16784 -85.61764,-2.49886 -72.93189,-0.31078 -74.90809,-0.34425 -81.25,-1.37642 -19.55054,-3.18192 -34.21832,-8.4218 -48.76766,-17.42166 -24.90953,-15.4084 -43.30623,-41.62842 -50.52061,-72.00483 -4.36796,-18.39143 -4.15737,-42.30673 0.53189,-60.40552 3.1773,-12.26316 9.10893,-25.97996 15.37384,-35.55175 19.02384,-29.0654 48.59078,-46.38214 86.63254,-50.73886 3.24785,-0.37196 38.46933,-0.57833 111.37501,-0.65257 l 106.62501,-0.10857 -1e-5,38.10925 -10e-6,38.10925 -103.875,0.18844 c -76.0692,0.13799 -104.74497,0.34421 -107.125,0.7704 -14.59861,2.61417 -23.42804,6.86067 -31.75,15.2701 -5.65567,5.71513 -8.77905,10.91617 -10.84109,18.05256 -1.66661,5.76786 -1.64614,16.30756 0.0422,21.75 5.16095,16.63623 17.98199,27.40212 38.25674,32.1244 4.48274,1.04409 5.52258,1.06216 79.54212,1.38235 79.48023,0.34382 78.47745,0.31408 92.5,2.74352 28.06571,4.86246 51.18626,16.48156 68.78567,34.56784 19.40119,19.93791 29.91728,45.09744 30.79729,73.68189 0.48842,15.86464 -1.11414,27.2504 -5.8733,41.72836 -9.6928,29.48668 -30.35601,53.69959 -57.70966,67.62351 -13.74539,6.99686 -26.34369,10.97784 -43.5,13.7457 l -7,1.12933 -132.875,0.14645 -132.87502,0.14646 0,-36.75991 z"
           style="opacity:0;fill:#000000;fill-opacity:1" />
        <path
           transform="translate(0,308.2677)"
           inkscape:connector-curvature="0"
           id="path6147"
           d=""
           style="opacity:0;fill:#000000;fill-opacity:1" />
        <path
           transform="translate(0,308.2677)"
           inkscape:connector-curvature="0"
           id="path6149"
           d="m 375.54004,606.44723 0,-36.7599 128.31083,0 c 113.31864,0 128.92071,-0.0906 133.5305,-0.77504 18.93783,-2.812 33.27025,-12.02457 40.22417,-25.85522 3.05472,-6.07554 4.06686,-10.47208 4.11382,-17.86974 0.0318,-5.01814 -0.17617,-7.00455 -1.05548,-10.07833 -4.6982,-16.42329 -17.04755,-27.54012 -36.0062,-32.41263 -8.49907,-2.18432 -7.93458,-2.16784 -85.61764,-2.49886 -72.93189,-0.31078 -74.90809,-0.34425 -81.25,-1.37642 -19.55054,-3.18192 -34.21832,-8.4218 -48.76766,-17.42166 -24.90953,-15.4084 -43.30623,-41.62842 -50.52061,-72.00483 -4.36796,-18.39143 -4.15737,-42.30673 0.53189,-60.40552 3.1773,-12.26316 9.10893,-25.97996 15.37384,-35.55175 19.02384,-29.0654 48.59078,-46.38214 86.63254,-50.73886 3.24785,-0.37196 38.46933,-0.57833 111.37501,-0.65257 l 106.62501,-0.10857 -1e-5,38.10925 -10e-6,38.10925 -103.875,0.18844 c -76.0692,0.13799 -104.74497,0.34421 -107.125,0.7704 -14.59861,2.61417 -23.42804,6.86067 -31.75,15.2701 -5.65567,5.71513 -8.77905,10.91617 -10.84109,18.05256 -1.66661,5.76786 -1.64614,16.30756 0.0422,21.75 5.16095,16.63623 17.98199,27.40212 38.25674,32.1244 4.48274,1.04409 5.52258,1.06216 79.54212,1.38235 79.48023,0.34382 78.47745,0.31408 92.5,2.74352 28.06571,4.86246 51.18626,16.48156 68.78567,34.56784 19.40119,19.93791 29.91728,45.09744 30.79729,73.68189 0.48842,15.86464 -1.11414,27.2504 -5.8733,41.72836 -9.6928,29.48668 -30.35601,53.69959 -57.70966,67.62351 -13.74539,6.99686 -26.34369,10.97784 -43.5,13.7457 l -7,1.12933 -132.875,0.14645 -132.87502,0.14646 0,-36.75991 z"
           style="opacity:0;fill:#000000;fill-opacity:1" />
      </g>
      <g
         transform="matrix(0.10639187,0,0,0.10639187,619.48499,-1.5854892)"
         id="layer1-9-2"
         inkscape:label="Ebene 1">
        <path
           transform="translate(0,308.2677)"
           inkscape:connector-curvature="0"
           id="path6143-2-2"
           d="m 375.54004,606.44723 0,-36.7599 128.31083,0 c 113.31864,0 128.92071,-0.0906 133.5305,-0.77504 18.93783,-2.812 33.27025,-12.02457 40.22417,-25.85522 3.05472,-6.07554 4.06686,-10.47208 4.11382,-17.86974 0.0318,-5.01814 -0.17617,-7.00455 -1.05548,-10.07833 -4.6982,-16.42329 -17.04755,-27.54012 -36.0062,-32.41263 -8.49907,-2.18432 -7.93458,-2.16784 -85.61764,-2.49886 -72.93189,-0.31078 -74.90809,-0.34425 -81.25,-1.37642 -19.55054,-3.18192 -34.21832,-8.4218 -48.76766,-17.42166 -24.90953,-15.4084 -43.30623,-41.62842 -50.52061,-72.00483 -4.36796,-18.39143 -4.15737,-42.30673 0.53189,-60.40552 3.1773,-12.26316 9.10893,-25.97996 15.37384,-35.55175 19.02384,-29.0654 48.59078,-46.38214 86.63254,-50.73886 3.24785,-0.37196 38.46933,-0.57833 111.37501,-0.65257 l 106.62501,-0.10857 -1e-5,38.10925 -10e-6,38.10925 -103.875,0.18844 c -76.0692,0.13799 -104.74497,0.34421 -107.125,0.7704 -14.59861,2.61417 -23.42804,6.86067 -31.75,15.2701 -5.65567,5.71513 -8.77905,10.91617 -10.84109,18.05256 -1.66661,5.76786 -1.64614,16.30756 0.0422,21.75 5.16095,16.63623 17.98199,27.40212 38.25674,32.1244 4.48274,1.04409 5.52258,1.06216 79.54212,1.38235 79.48023,0.34382 78.47745,0.31408 92.5,2.74352 28.06571,4.86246 51.18626,16.48156 68.78567,34.56784 19.40119,19.93791 29.91728,45.09744 30.79729,73.68189 0.48842,15.86464 -1.11414,27.2504 -5.8733,41.72836 -9.6928,29.48668 -30.35601,53.69959 -57.70966,67.62351 -13.74539,6.99686 -26.34369,10.97784 -43.5,13.7457 l -7,1.12933 -132.875,0.14645 -132.87502,0.14646 0,-36.75991 z"
           style="opacity:0;fill:#000000;fill-opacity:1" />
        <path
           transform="translate(0,308.2677)"
           inkscape:connector-curvature="0"
           id="path6145-2-9"
           d="m 375.54004,606.44723 0,-36.7599 128.31083,0 c 113.31864,0 128.92071,-0.0906 133.5305,-0.77504 18.93783,-2.812 33.27025,-12.02457 40.22417,-25.85522 3.05472,-6.07554 4.06686,-10.47208 4.11382,-17.86974 0.0318,-5.01814 -0.17617,-7.00455 -1.05548,-10.07833 -4.6982,-16.42329 -17.04755,-27.54012 -36.0062,-32.41263 -8.49907,-2.18432 -7.93458,-2.16784 -85.61764,-2.49886 -72.93189,-0.31078 -74.90809,-0.34425 -81.25,-1.37642 -19.55054,-3.18192 -34.21832,-8.4218 -48.76766,-17.42166 -24.90953,-15.4084 -43.30623,-41.62842 -50.52061,-72.00483 -4.36796,-18.39143 -4.15737,-42.30673 0.53189,-60.40552 3.1773,-12.26316 9.10893,-25.97996 15.37384,-35.55175 19.02384,-29.0654 48.59078,-46.38214 86.63254,-50.73886 3.24785,-0.37196 38.46933,-0.57833 111.37501,-0.65257 l 106.62501,-0.10857 -1e-5,38.10925 -10e-6,38.10925 -103.875,0.18844 c -76.0692,0.13799 -104.74497,0.34421 -107.125,0.7704 -14.59861,2.61417 -23.42804,6.86067 -31.75,15.2701 -5.65567,5.71513 -8.77905,10.91617 -10.84109,18.05256 -1.66661,5.76786 -1.64614,16.30756 0.0422,21.75 5.16095,16.63623 17.98199,27.40212 38.25674,32.1244 4.48274,1.04409 5.52258,1.06216 79.54212,1.38235 79.48023,0.34382 78.47745,0.31408 92.5,2.74352 28.06571,4.86246 51.18626,16.48156 68.78567,34.56784 19.40119,19.93791 29.91728,45.09744 30.79729,73.68189 0.48842,15.86464 -1.11414,27.2504 -5.8733,41.72836 -9.6928,29.48668 -30.35601,53.69959 -57.70966,67.62351 -13.74539,6.99686 -26.34369,10.97784 -43.5,13.7457 l -7,1.12933 -132.875,0.14645 -132.87502,0.14646 0,-36.75991 z"
           style="opacity:0;fill:#000000;fill-opacity:1" />
        <path
           transform="translate(0,308.2677)"
           inkscape:connector-curvature="0"
           id="path6147-0-9"
           d=""
           style="opacity:0;fill:#000000;fill-opacity:1" />
        <path
           transform="translate(0,308.2677)"
           inkscape:connector-curvature="0"
           id="path6149-7-5"
           d="m 375.54004,606.44723 0,-36.7599 128.31083,0 c 113.31864,0 128.92071,-0.0906 133.5305,-0.77504 18.93783,-2.812 33.27025,-12.02457 40.22417,-25.85522 3.05472,-6.07554 4.06686,-10.47208 4.11382,-17.86974 0.0318,-5.01814 -0.17617,-7.00455 -1.05548,-10.07833 -4.6982,-16.42329 -17.04755,-27.54012 -36.0062,-32.41263 -8.49907,-2.18432 -7.93458,-2.16784 -85.61764,-2.49886 -72.93189,-0.31078 -74.90809,-0.34425 -81.25,-1.37642 -19.55054,-3.18192 -34.21832,-8.4218 -48.76766,-17.42166 -24.90953,-15.4084 -43.30623,-41.62842 -50.52061,-72.00483 -4.36796,-18.39143 -4.15737,-42.30673 0.53189,-60.40552 3.1773,-12.26316 9.10893,-25.97996 15.37384,-35.55175 19.02384,-29.0654 48.59078,-46.38214 86.63254,-50.73886 3.24785,-0.37196 38.46933,-0.57833 111.37501,-0.65257 l 106.62501,-0.10857 -1e-5,38.10925 -10e-6,38.10925 -103.875,0.18844 c -76.0692,0.13799 -104.74497,0.34421 -107.125,0.7704 -14.59861,2.61417 -23.42804,6.86067 -31.75,15.2701 -5.65567,5.71513 -8.77905,10.91617 -10.84109,18.05256 -1.66661,5.76786 -1.64614,16.30756 0.0422,21.75 5.16095,16.63623 17.98199,27.40212 38.25674,32.1244 4.48274,1.04409 5.52258,1.06216 79.54212,1.38235 79.48023,0.34382 78.47745,0.31408 92.5,2.74352 28.06571,4.86246 51.18626,16.48156 68.78567,34.56784 19.40119,19.93791 29.91728,45.09744 30.79729,73.68189 0.48842,15.86464 -1.11414,27.2504 -5.8733,41.72836 -9.6928,29.48668 -30.35601,53.69959 -57.70966,67.62351 -13.74539,6.99686 -26.34369,10.97784 -43.5,13.7457 l -7,1.12933 -132.875,0.14645 -132.87502,0.14646 0,-36.75991 z"
           style="opacity:0;fill:#000000;fill-opacity:1" />
        <path
           sodipodi:nodetypes="ccccccccccccc"
           inkscape:connector-curvature="0"
           id="path8689-8"
           d="M 300,952.36218 457.34182,727.65477 332.5,549.36218 l 85.31636,0 82.18364,117.3704 82,-117.3704 118,0 -140.04151,200 140.04151,203 -85.31636,0 L 516.25,811.78437 417.81636,952.36218 z"
           style="fill:#2c5aa0;fill-opacity:1;stroke:none" />
      </g>
      <text
         xml:space="preserve"
         style="font-size:40px;font-style:normal;font-weight:normal;line-height:125%;letter-spacing:0px;word-spacing:0px;fill:#000000;fill-opacity:1;stroke:none;font-family:Sans"
         x="613"
         y="99.862183"
         id="text11253"
         sodipodi:linespacing="125%"><tspan
           sodipodi:role="line"
           id="tspan11255"
           x="613"
           y="99.862183"
           style="font-size:12px;font-style:normal;font-variant:normal;font-weight:normal;font-stretch:normal;font-family:LiHei Pro;-inkscape-font-specification:LiHei Pro">GmbH</tspan></text>
    </g>
    <text
       xml:space="preserve"
       style="font-size:12px;font-style:normal;font-variant:normal;font-weight:normal;font-stretch:normal;line-height:125%;letter-spacing:0px;word-spacing:0px;fill:#000000;fill-opacity:1;stroke:none;font-family:LiHei Pro;-inkscape-font-specification:LiHei Pro"
       x="562.5"
       y="-140.66142"
       id="text13581"
       sodipodi:linespacing="125%"
       inkscape:export-filename="/Users/cam/Documents/Projektordner/V1/Seite1.png"
       inkscape:export-xdpi="600"
       inkscape:export-ydpi="600"><tspan
         sodipodi:role="line"
         id="tspan13583"
         x="562.5"
         y="-140.66142"
         style="font-size:9px;font-weight:bold;-inkscape-font-specification:LiHei Pro Bold">IT Consulting</tspan></text>
    <rect
       style="fill:none;stroke:none;stroke-width:0.35433071999999999;stroke-miterlimit:4;stroke-opacity:1;stroke-dasharray:none"
       id="rect13642"
       width="303.3071"
       height="191.33858"
       x="336.61417"
       y="269.29132"
       transform="translate(0,-552.75591)"
       inkscape:export-filename="/Users/cam/Documents/Projektordner/V1/Seite1.png"
       inkscape:export-xdpi="600"
       inkscape:export-ydpi="600" />
    <rect
       style="fill:none;stroke:none"
       id="rect13644"
       width="468.5"
       height="292.5"
       x="256"
       y="226.09448"
       transform="translate(0,-552.75591)" />
    <rect
       style="opacity:0;fill:#666666;fill-opacity:1;stroke:#000000;stroke-opacity:1"
       id="rect12512-0"
       width="275.38583"
       height="191.33858"
       x="336.61417"
       y="-71.66143"
       inkscape:export-filename="/Users/cam/Documents/Projektordner/V1/Seite2.png"
       inkscape:export-xdpi="600"
       inkscape:export-ydpi="600" />
    <rect
       style="fill:none;stroke:none"
       id="rect13642-4"
       width="303.3071"
       height="191.33858"
       x="538.09644"
       y="-161.33073"
       inkscape:export-filename="/Users/cam/Documents/Projektordner/V1/Seite1.png"
       inkscape:export-xdpi="600"
       inkscape:export-ydpi="600" />
    <rect
       style="fill:none;stroke:none;stroke-opacity:1"
       id="rect13914"
       width="303.3071"
       height="191.33858"
       x="336.61417"
       y="-71.66143"
       inkscape:export-filename="/Users/cam/Documents/Projektordner/V1/Seite2.png"
       inkscape:export-xdpi="600"
       inkscape:export-ydpi="600" />
  </g>
</svg>
