<?xml version="1.0" encoding="UTF-8" standalone="no"?>
<!-- Created with Inkscape (http://www.inkscape.org/) -->

<svg
   xmlns:dc="http://purl.org/dc/elements/1.1/"
   xmlns:cc="http://creativecommons.org/ns#"
   xmlns:rdf="http://www.w3.org/1999/02/22-rdf-syntax-ns#"
   xmlns:svg="http://www.w3.org/2000/svg"
   xmlns="http://www.w3.org/2000/svg"
   xmlns:xlink="http://www.w3.org/1999/xlink"
   xmlns:sodipodi="http://sodipodi.sourceforge.net/DTD/sodipodi-0.dtd"
   xmlns:inkscape="http://www.inkscape.org/namespaces/inkscape"
   version="1.0"
   width="602.36218"
   height="176.38582"
   id="svg3681"
   inkscape:version="0.91 r13725"
   sodipodi:docname="Commerzbank_(2009).svg">
  <metadata
     id="metadata37">
    <rdf:RDF>
      <cc:Work
         rdf:about="">
        <dc:format>image/svg+xml</dc:format>
        <dc:type
           rdf:resource="http://purl.org/dc/dcmitype/StillImage" />
      </cc:Work>
    </rdf:RDF>
  </metadata>
  <sodipodi:namedview
     pagecolor="#ffffff"
     bordercolor="#666666"
     borderopacity="1"
     objecttolerance="10"
     gridtolerance="10"
     guidetolerance="10"
     inkscape:pageopacity="0"
     inkscape:pageshadow="2"
     inkscape:window-width="640"
     inkscape:window-height="480"
     id="namedview35"
     showgrid="false"
     inkscape:zoom="0.58104577"
     inkscape:cx="301.18109"
     inkscape:cy="88.192909"
     inkscape:window-x="0"
     inkscape:window-y="0"
     inkscape:window-maximized="0"
     inkscape:current-layer="svg3681" />
  <defs
     id="defs3683">
    <radialGradient
       cx="0"
       cy="0"
       r="1"
       fx="0"
       fy="0"
       id="radialGradient263"
       gradientUnits="userSpaceOnUse"
       gradientTransform="matrix(24.979874,0,0,-24.979874,568.24237,786.90625)"
       spreadMethod="pad">
      <stop
         id="stop265"
         style="stop-color:#fedf33;stop-opacity:1"
         offset="0" />
      <stop
         id="stop267"
         style="stop-color:#fbb809;stop-opacity:1"
         offset="0.44000199" />
      <stop
         id="stop269"
         style="stop-color:#ee960d;stop-opacity:1"
         offset="0.89999402" />
      <stop
         id="stop271"
         style="stop-color:#d87301;stop-opacity:1"
         offset="1" />
    </radialGradient>
    <radialGradient
       cx="0"
       cy="0"
       r="1"
       fx="0"
       fy="0"
       id="radialGradient3640"
       xlink:href="#radialGradient263"
       gradientUnits="userSpaceOnUse"
       gradientTransform="matrix(24.979874,0,0,-24.979874,568.24237,786.90625)"
       spreadMethod="pad" />
    <radialGradient
       cx="0"
       cy="0"
       r="1"
       fx="0"
       fy="0"
       id="radialGradient239"
       gradientUnits="userSpaceOnUse"
       gradientTransform="matrix(24.910126,0,0,-24.910126,543.59962,793.65115)"
       spreadMethod="pad">
      <stop
         id="stop241"
         style="stop-color:#fedf33;stop-opacity:1"
         offset="0" />
      <stop
         id="stop243"
         style="stop-color:#fbb809;stop-opacity:1"
         offset="0.44000199" />
      <stop
         id="stop245"
         style="stop-color:#ee960d;stop-opacity:1"
         offset="0.89999402" />
      <stop
         id="stop247"
         style="stop-color:#e17a10;stop-opacity:1"
         offset="1" />
    </radialGradient>
    <radialGradient
       cx="0"
       cy="0"
       r="1"
       fx="0"
       fy="0"
       id="radialGradient3643"
       xlink:href="#radialGradient239"
       gradientUnits="userSpaceOnUse"
       gradientTransform="matrix(24.910126,0,0,-24.910126,543.59962,793.65115)"
       spreadMethod="pad" />
    <radialGradient
       cx="0"
       cy="0"
       r="1"
       fx="0"
       fy="0"
       id="radialGradient215"
       gradientUnits="userSpaceOnUse"
       gradientTransform="matrix(24.920029,0,0,-24.920029,561.75633,811.72659)"
       spreadMethod="pad">
      <stop
         id="stop217"
         style="stop-color:#fedf33;stop-opacity:1"
         offset="0" />
      <stop
         id="stop219"
         style="stop-color:#fbb809;stop-opacity:1"
         offset="0.44000199" />
      <stop
         id="stop221"
         style="stop-color:#ee960d;stop-opacity:1"
         offset="0.89999402" />
      <stop
         id="stop223"
         style="stop-color:#e17a10;stop-opacity:1"
         offset="1" />
    </radialGradient>
    <radialGradient
       cx="0"
       cy="0"
       r="1"
       fx="0"
       fy="0"
       id="radialGradient3646"
       xlink:href="#radialGradient215"
       gradientUnits="userSpaceOnUse"
       gradientTransform="matrix(24.920029,0,0,-24.920029,561.75633,811.72659)"
       spreadMethod="pad" />
    <radialGradient
       cx="0"
       cy="0"
       r="1"
       fx="0"
       fy="0"
       id="radialGradient191"
       gradientUnits="userSpaceOnUse"
       gradientTransform="matrix(24.901733,0,0,-24.901718,568.25887,786.98686)"
       spreadMethod="pad">
      <stop
         id="stop193"
         style="stop-color:#fedf33;stop-opacity:1"
         offset="0" />
      <stop
         id="stop195"
         style="stop-color:#fbb809;stop-opacity:1"
         offset="0.44000199" />
      <stop
         id="stop197"
         style="stop-color:#ee960d;stop-opacity:1"
         offset="0.89999402" />
      <stop
         id="stop199"
         style="stop-color:#e17a10;stop-opacity:1"
         offset="1" />
    </radialGradient>
    <radialGradient
       cx="0"
       cy="0"
       r="1"
       fx="0"
       fy="0"
       id="radialGradient3649"
       xlink:href="#radialGradient191"
       gradientUnits="userSpaceOnUse"
       gradientTransform="matrix(24.901733,0,0,-24.901718,568.25887,786.98686)"
       spreadMethod="pad" />
  </defs>
  <g
     transform="translate(-544.27348,-959.30113)"
     id="layer1">
    <g
       transform="matrix(2.6667598,0,0,-2.6667598,-401.84366,3177.6898)"
       id="g3651">
      <path
         d="m 562.198,811.726 c -0.585,0 -2.324,0 -4.345,-2.454 l 0,0 c 0.026,-0.031 0.052,-0.062 0.079,-0.094 l 0,0 c 0.519,0.607 1.17,1.228 1.869,1.68 l 0,0 c 0.646,0.416 1.395,0.694 2.015,0.762 l 0,0 c 0.452,0.05 1.947,0.031 3.649,0.031 l 0,0 c 0.009,0 0.014,-0.004 0.018,-0.009 l 0,0 -0.044,0.074 c -0.003,0.007 -0.009,0.01 -0.016,0.01 l 0,0 -3.225,0 z"
         id="path201"
         style="fill:url(#radialGradient3649);stroke:none"
         inkscape:connector-curvature="0" />
      <path
         d="m 550.345,811.726 c -0.006,0 -0.013,-0.002 -0.017,-0.009 l 0,0 -6.33,-10.964 -1.985,-3.438 -0.23,-0.399 -0.03,-0.051 c -0.002,-0.004 -0.002,-0.011 0.002,-0.019 l 0,0 6.03,-10.444 0,0.043 c -0.131,0.24 -0.225,0.425 -0.275,0.541 l 0,0 c -0.252,0.571 -0.395,1.361 -0.358,2.129 l 0,0 c 0.102,2.022 1.177,4.017 1.718,4.953 l 0,0 c 1.268,2.196 3.719,6.443 3.719,6.443 l 0,0 c 0,0 2.452,4.247 3.72,6.444 l 0,0 c 0.54,0.935 1.731,2.864 3.432,3.963 l 0,0 c 0.645,0.417 1.403,0.687 2.021,0.755 l 0,0 c 0.453,0.051 1.957,0.053 3.661,0.053 l 0,0 -15.078,0 z"
         id="path225"
         style="fill:url(#radialGradient3646);stroke:none"
         inkscape:connector-curvature="0" />
      <path
         d="m 541.805,796.763 c 0.095,-0.166 0.189,-0.33 0.282,-0.49 l 0,0 -0.282,0.49 z m 30.332,-3.06 c -0.369,-0.502 -0.981,-1.023 -1.665,-1.373 l 0,0 c -1.803,-0.923 -4.067,-0.99 -5.147,-0.99 l 0,0 -7.441,0 -7.44,0 c -1.08,0 -3.347,0.067 -5.147,0.99 l 0,0 c -0.685,0.35 -1.297,0.871 -1.666,1.373 l 0,0 c -0.234,0.319 -0.834,1.341 -1.544,2.57 l 0,0 1.513,-2.622 5.694,-9.863 c 0.003,-0.005 0.01,-0.009 0.016,-0.009 l 0,0 17.149,0 c 0.005,0 0.012,0.005 0.015,0.01 l 0,0 7.472,12.941 c -0.824,-1.427 -1.546,-2.67 -1.809,-3.027"
         id="path249"
         style="fill:url(#radialGradient3643);stroke:none"
         inkscape:connector-curvature="0" />
      <path
         d="m 561.762,811.673 c -0.618,-0.068 -1.376,-0.338 -2.021,-0.755 l 0,0 c -0.712,-0.46 -1.334,-1.065 -1.857,-1.682 l 0,0 c 0.727,-0.857 1.261,-1.736 1.575,-2.281 l 0,0 c 1.268,-2.197 3.721,-6.444 3.721,-6.444 l 0,0 c 0,0 2.451,-4.247 3.72,-6.443 l 0,0 c 0.539,-0.936 1.615,-2.931 1.715,-4.953 l 0,0 c 0.038,-0.768 -0.107,-1.558 -0.356,-2.129 l 0,0 c -0.175,-0.399 -0.87,-1.612 -1.677,-3.01 l 0,0 7.433,12.873 c 0,10e-4 10e-4,0.002 10e-4,0.004 l 0,0 0,0.008 c 0,0.002 -10e-4,0.004 -0.002,0.005 l 0,0 -8.575,14.85 c -0.003,0.007 -0.009,0.01 -0.016,0.01 l 0,0 c -1.704,0 -3.208,-0.002 -3.661,-0.053"
         id="path273"
         style="fill:url(#radialGradient3640);stroke:none"
         inkscape:connector-curvature="0" />
      <path
         d="m 461.3125,47.21875 c -5.3025,0 -9.53125,4.365 -9.53125,9.84375 10e-6,5.726251 4.15625,9.6875 9.28125,9.6875 2.93375,-10e-7 5.20625,-1.05125 6.9375,-3.03125 l -2.5625,-2.625 c -1.06001,1.131252 -2.39375,1.75 -4.125,1.75 -3.00375,0 -5.03125,-2.51625 -5.03125,-5.875 -10e-6,-3.251249 2.07125,-5.84375 4.96875,-5.84375 1.52126,10e-7 2.81375,0.56875 3.875,1.59375 l 2.65625,-2.75 c -1.55625,-1.69625 -3.8525,-2.75 -6.46875,-2.75 z m 17.96875,0 c -5.62,0 -9.84375,4.4 -9.84375,9.84375 10e-6,5.515001 3.9925,9.6875 9.71875,9.6875 5.62001,-10e-7 9.84375,-4.39875 9.84375,-9.84375 0,-5.513751 -3.99375,-9.6875 -9.71875,-9.6875 z m 14.28125,0.3125 -1.84375,18.875 3.90625,0 0.875,-10.1875 c 0.17625,-1.980002 0.1875,-4.03125 0.1875,-4.03125 l 0.0937,0 c 0,10e-7 0.435,2.06375 1,3.9375 l 3.1875,10.28125 3.71875,0 3.1875,-10.375 c 0.565,-1.8025 1,-3.84375 1,-3.84375 l 0.0625,0 c 0,10e-7 0.0425,2.0425 0.21875,4.09375 l 0.84375,10.125 4.15625,0 -1.84375,-18.875 -5.46875,0 -2.875,9.34375 c -0.45874,1.5225 -0.9375,3.46875 -0.9375,3.46875 -1e-5,0 -0.50375,-1.94375 -1,-3.5 l -2.90625,-9.3125 -5.5625,0 z m 26.3125,0 -1.8125,18.875 3.90625,0 0.84375,-10.1875 c 0.17626,-1.980002 0.21875,-4.03125 0.21875,-4.03125 l 0.0625,0 c -2e-5,10e-7 0.46625,2.06375 1.03125,3.9375 l 3.1875,10.28125 3.71875,0 3.15625,-10.375 c 0.56623,-1.8025 1,-3.84375 1,-3.84375 l 0.0625,0 c -2e-5,10e-7 0.0425,2.0425 0.21875,4.09375 l 0.84375,10.125 4.1875,0 -1.84375,-18.875 -5.46875,0 -2.875,9.34375 c -0.46001,1.5225 -0.9375,3.46875 -0.9375,3.46875 10e-6,0 -0.505,-1.94375 -1,-3.5 l -2.90625,-9.3125 -5.59375,0 z m 25.125,0 0,18.875 12.28125,0 0,-3.625 -8.15625,0 0,-4.125 6.90625,0 0,-3.53125 -6.90625,0 0,-4 8.03125,0 0,-3.59375 -12.15625,0 z m 17.125,0 0,18.875 4.125,0 0,-6.875 1.28125,0 4.03125,6.875 4.90625,0 -4.65625,-7.59375 c 2.43876,-0.91875 3.8125,-2.81125 3.8125,-5.25 -3e-5,-3.817499 -2.1525,-6.03125 -7.84375,-6.03125 l -5.65625,0 z m 16.9375,0 0,3.59375 7.625,0 -7.8125,12.15625 0,3.125 13.15625,0 0,-3.625 -8,0 7.8125,-12.15625 0,-3.09375 -12.78125,0 z m 17.21875,0 0,18.875 7.21875,0 c 3.35877,-2e-6 7.09375,-1.515 7.09375,-5.4375 -2e-5,-2.438751 -1.5575,-4.09 -4.03125,-4.40625 l 0,-0.03125 c 1.94373,-0.6025 3.15625,-2.07125 3.15625,-4.15625 -10e-6,-4.101251 -3.61625,-4.84375 -6.90625,-4.84375 l -6.53125,0 z m 22.40625,0 -6.71875,18.875 4.125,0 1.3125,-3.84375 7.34375,0 1.3125,3.84375 4.4375,0 -6.71875,-18.875 -5.09375,0 z m 14.375,0 0,18.875 3.8125,0 0,-8.96875 C 636.875,55.739999 636.75,54 636.75,54 c -2e-5,2e-6 0.88625,1.51625 1.875,3 l 6.40625,9.40625 3.65625,0 0,-18.875 -3.84375,0 0,8.5625 c 10e-6,1.697499 0.125,3.40625 0.125,3.40625 0,0 -0.88375,-1.515 -1.875,-3 l -6.125,-8.96875 -3.90625,0 z m 20.15625,0 0,18.875 4.09375,0 0,-8.84375 6.03125,8.84375 5.0625,0 -6.9375,-10.125 6.28125,-8.75 -4.75,0 -5.6875,8.46875 0,-8.46875 -4.09375,0 z m -174,3.53125 c 3.25125,2e-6 5.34375,2.58 5.34375,5.9375 10e-6,3.181252 -2.0225,5.90625 -5.34375,5.90625 -3.2525,0 -5.34375,-2.57875 -5.34375,-5.9375 0,-3.181249 2.02125,-5.90625 5.34375,-5.90625 z m 87.03125,0 1.6875,0 c 2.19124,-10e-7 3.46875,0.6625 3.46875,2.5 2e-5,1.767501 -1.17125,2.53125 -3.46875,2.53125 l -1.6875,0 0,-5.03125 z m 34.125,0 2.375,0 c 1.30748,-10e-7 2.625,0.4125 2.625,1.96875 -10e-6,1.51875 -1.1275,2.125 -2.4375,2.125 l -2.5625,0 0,-4.09375 z m 20.71875,0.28125 c -10e-6,10e-7 0.35125,1.2775 0.8125,2.65625 l 1.65625,5 -4.9375,0 1.65625,-4.96875 c 0.46002,-1.413752 0.8125,-2.6875 0.8125,-2.6875 z M 600.375,58.625 l 3.03125,0 c 1.83625,10e-7 3.03125,0.5775 3.03125,2.0625 -10e-6,1.450001 -0.94625,2.1875 -3.03125,2.1875 l -3.03125,0 0,-4.25 z"
         transform="matrix(0.8,0,0,-0.8,0,841.89)"
         id="path177"
         style="fill:#000000;fill-opacity:1;fill-rule:nonzero;stroke:none"
         inkscape:connector-curvature="0" />
    </g>
  </g>
</svg>
