<?xml version="1.0" encoding="UTF-8" standalone="no"?>
<!-- Created with Inkscape (http://www.inkscape.org/) -->

<svg
   xmlns:dc="http://purl.org/dc/elements/1.1/"
   xmlns:cc="http://creativecommons.org/ns#"
   xmlns:rdf="http://www.w3.org/1999/02/22-rdf-syntax-ns#"
   xmlns:svg="http://www.w3.org/2000/svg"
   xmlns="http://www.w3.org/2000/svg"
   xmlns:xlink="http://www.w3.org/1999/xlink"
   xmlns:sodipodi="http://sodipodi.sourceforge.net/DTD/sodipodi-0.dtd"
   xmlns:inkscape="http://www.inkscape.org/namespaces/inkscape"
   version="1.0"
   width="602.36218"
   height="176.38582"
   id="svg2"
   xml:space="preserve"
   inkscape:version="0.91 r13725"
   sodipodi:docname="Logo_Celanese.svg"><metadata
     id="metadata39"><rdf:RDF><cc:Work
         rdf:about=""><dc:format>image/svg+xml</dc:format><dc:type
           rdf:resource="http://purl.org/dc/dcmitype/StillImage" /></cc:Work></rdf:RDF></metadata><sodipodi:namedview
     pagecolor="#ffffff"
     bordercolor="#666666"
     borderopacity="1"
     objecttolerance="10"
     gridtolerance="10"
     guidetolerance="10"
     inkscape:pageopacity="0"
     inkscape:pageshadow="2"
     inkscape:window-width="640"
     inkscape:window-height="480"
     id="namedview37"
     showgrid="false"
     inkscape:zoom="0.58104577"
     inkscape:cx="301.18109"
     inkscape:cy="88.192909"
     inkscape:window-x="0"
     inkscape:window-y="0"
     inkscape:window-maximized="0"
     inkscape:current-layer="svg2" /><defs
     id="defs5"><clipPath
       id="clipPath181"><path
         d="M 378.141,710.876 L 574.677,710.876 L 574.677,759.284 L 378.141,759.284 L 378.141,710.876 z"
         id="path183" /></clipPath><radialGradient
       cx="0"
       cy="0"
       r="1"
       fx="0"
       fy="0"
       id="radialGradient227"
       gradientUnits="userSpaceOnUse"
       gradientTransform="matrix(22.675461,0,0,-22.675461,397.03572,737.60506)"
       spreadMethod="pad"><stop
         id="stop229"
         style="stop-color:#fce1ce;stop-opacity:1"
         offset="0" /><stop
         id="stop231"
         style="stop-color:#e75113;stop-opacity:1"
         offset="0.73295599" /><stop
         id="stop233"
         style="stop-color:#e75113;stop-opacity:1"
         offset="1" /></radialGradient><radialGradient
       cx="0"
       cy="0"
       r="1"
       fx="0"
       fy="0"
       id="radialGradient3132"
       xlink:href="#radialGradient227"
       gradientUnits="userSpaceOnUse"
       gradientTransform="matrix(22.675461,0,0,-22.675461,397.03572,737.60506)"
       spreadMethod="pad" /></defs><g
     id="g2413"
     transform="translate(89.49381,51.631044)"><rect
       width="360"
       height="73"
       x="0"
       y="0.20588236"
       id="rect2411"
       style="fill:#ffffff;fill-opacity:1" /><g
       transform="matrix(1.25,0,0,-1.25,-355.07556,938.18004)"
       id="g11"><g
         transform="matrix(1.5404767,0,0,1.5404767,-304.55257,-407.36579)"
         id="g3060"><g
           id="g177"><g
             clip-path="url(#clipPath181)"
             id="g179"><g
               transform="translate(448.9493,724.1116)"
               id="g185"><path
                 d="m 0,0 c -1.124,-0.502 -2.923,-0.845 -4.646,-0.845 -5.126,0 -8.121,3.256 -8.121,8.397 0,5.607 3.421,8.576 8.176,8.576 1.907,0 3.459,-0.418 4.548,-0.913 l 0.925,3.396 c -0.861,0.463 -2.843,1.032 -5.649,1.032 -7.13,0 -12.486,-4.635 -12.486,-12.303 0,-7.103 4.506,-11.749 11.906,-11.749 2.824,0 5.045,0.55 6.052,1.05 L 0,0 Z"
                 id="path187"
                 style="fill:#000000;fill-opacity:1;fill-rule:nonzero;stroke:none"
                 inkscape:connector-curvature="0" /></g><g
               transform="translate(455.9296,730.2801)"
               id="g189"><path
                 d="M 0,0 C 0.188,1.725 1.28,4.106 3.902,4.106 6.756,4.106 7.434,1.561 7.416,0 L 0,0 Z m 11.276,-2.968 c 0.082,0.36 0.151,0.995 0.151,1.788 0,3.692 -1.783,8.194 -7.259,8.194 -5.421,0 -8.241,-4.4 -8.241,-9.049 0,-5.163 3.205,-8.543 8.675,-8.543 2.446,0 4.444,0.458 5.887,1.068 l -0.63,2.933 C 8.572,-7.049 7.168,-7.359 5.21,-7.359 c -2.728,0 -5.088,1.337 -5.204,4.391 l 11.27,0 z"
                 id="path191"
                 style="fill:#000000;fill-opacity:1;fill-rule:evenodd;stroke:none"
                 inkscape:connector-curvature="0" /></g><path
               d="m 471.477,720.065 4.263,0 0,24.571 -4.263,0 0,-24.571 z"
               id="path193"
               style="fill:#000000;fill-opacity:1;fill-rule:nonzero;stroke:none"
               inkscape:connector-curvature="0" /><g
               transform="translate(489.9705,725.9888)"
               id="g195"><path
                 d="m 0,0 c 0,-0.294 -0.028,-0.63 -0.12,-0.924 -0.409,-1.236 -1.634,-2.335 -3.334,-2.335 -1.344,0 -2.428,0.779 -2.428,2.428 0,2.565 2.874,3.198 5.882,3.159 L 0,0 Z m 4.145,4.201 c 0,3.697 -1.543,7.105 -6.947,7.105 -2.654,0 -4.836,-0.722 -6.107,-1.496 l 0.841,-2.763 c 1.153,0.723 2.881,1.256 4.531,1.256 2.983,0.011 3.422,-1.831 3.422,-2.939 l 0,-0.276 c -6.206,0.023 -9.992,-2.128 -9.992,-6.38 0,-2.569 1.892,-5.012 5.311,-5.012 2.18,0 3.941,0.928 4.967,2.258 l 0.097,0 0.293,-1.878 3.844,0 c -0.186,1.042 -0.26,2.527 -0.26,4.06 l 0,6.065 z"
                 id="path197"
                 style="fill:#000000;fill-opacity:1;fill-rule:evenodd;stroke:none"
                 inkscape:connector-curvature="0" /></g><g
               transform="translate(499.1373,720.0652)"
               id="g199"><path
                 d="m 0,0 4.263,0 0,9.916 c 0,0.483 0.064,1.001 0.195,1.35 0.446,1.302 1.621,2.5 3.312,2.5 2.329,0 3.218,-1.843 3.218,-4.261 l 0,-9.505 4.262,0 0,10.008 c 0,5.331 -3.052,7.221 -5.99,7.221 -2.8,0 -4.623,-1.602 -5.366,-2.909 l -0.101,0 -0.21,2.528 -3.719,0 C -0.062,15.39 0,13.783 0,11.836 L 0,0 Z"
                 id="path201"
                 style="fill:#000000;fill-opacity:1;fill-rule:nonzero;stroke:none"
                 inkscape:connector-curvature="0" /></g><g
               transform="translate(522.2862,730.2801)"
               id="g203"><path
                 d="M 0,0 C 0.192,1.725 1.283,4.106 3.905,4.106 6.758,4.106 7.435,1.561 7.42,0 L 0,0 Z m 11.28,-2.968 c 0.08,0.36 0.152,0.995 0.152,1.788 0,3.692 -1.784,8.194 -7.263,8.194 -5.419,0 -8.238,-4.4 -8.238,-9.049 0,-5.163 3.205,-8.543 8.672,-8.543 2.444,0 4.446,0.458 5.888,1.068 l -0.63,2.933 c -1.287,-0.472 -2.689,-0.782 -4.65,-0.782 -2.725,0 -5.088,1.337 -5.202,4.391 l 11.271,0 z"
                 id="path205"
                 style="fill:#000000;fill-opacity:1;fill-rule:evenodd;stroke:none"
                 inkscape:connector-curvature="0" /></g><g
               transform="translate(536.943,720.884)"
               id="g207"><path
                 d="m 0,0 c 1.243,-0.693 3.095,-1.182 5.132,-1.182 4.45,0 6.845,2.218 6.845,5.289 -0.014,2.484 -1.43,4.048 -4.496,5.132 -2.126,0.775 -2.942,1.289 -2.942,2.36 0,1.035 0.847,1.784 2.359,1.784 1.493,0 2.856,-0.568 3.566,-0.97 l 0.843,2.99 c -0.988,0.544 -2.61,1.008 -4.469,1.008 -3.934,0 -6.392,-2.31 -6.392,-5.274 C 0.431,9.142 1.805,7.348 5.1,6.219 7.172,5.482 7.871,4.903 7.871,3.761 c 0,-1.104 -0.843,-1.89 -2.713,-1.89 -1.525,0 -3.36,0.646 -4.3,1.229 L 0,0 Z"
                 id="path209"
                 style="fill:#000000;fill-opacity:1;fill-rule:nonzero;stroke:none"
                 inkscape:connector-curvature="0" /></g><g
               transform="translate(556.0236,730.2801)"
               id="g211"><path
                 d="M 0,0 C 0.191,1.725 1.28,4.106 3.902,4.106 6.758,4.106 7.435,1.561 7.419,0 L 0,0 Z m 11.28,-2.968 c 0.08,0.36 0.15,0.995 0.15,1.788 0,3.692 -1.785,8.194 -7.261,8.194 -5.419,0 -8.24,-4.4 -8.24,-9.049 0,-5.163 3.205,-8.543 8.677,-8.543 2.443,0 4.448,0.458 5.888,1.068 L 9.859,-6.577 C 8.574,-7.049 7.17,-7.359 5.21,-7.359 c -2.724,0 -5.087,1.337 -5.203,4.391 l 11.273,0 z"
                 id="path213"
                 style="fill:#000000;fill-opacity:1;fill-rule:evenodd;stroke:none"
                 inkscape:connector-curvature="0" /></g></g></g><g
           id="g215"><g
             id="g217"><g
               id="g223"><g
                 id="g225"><path
                   d="m 383.489,732.735 c 0,-1.078 0.096,-2.135 0.28,-3.162 l 0,0 c 4.951,12.496 20.464,16.43 27.901,17.638 l 0,0 c -2.919,2.096 -6.503,3.333 -10.373,3.333 l 0,0 c -9.835,0 -17.808,-7.971 -17.808,-17.809 m 31.815,10.996 c -5.342,-0.66 -18.327,-4.487 -20.792,-11.803 l 0,0 c -1.73,-5.134 2.551,-6.766 9.872,-4.715 l 0,0 c 2.947,0.824 5.92,2.016 8.262,3.378 l 0,0 0,-5.976 c -0.181,-0.159 -3.983,-2.818 -10.332,-4.493 l 0,0 c -4.397,-1.161 -8.875,-1.566 -12.443,-1.044 l 0,0 c 3.091,-2.585 7.078,-4.149 11.426,-4.149 l 0,0 c 9.836,0 17.805,7.97 17.805,17.806 l 0,0 c 0,4.151 -1.414,7.969 -3.795,10.996 l 0,0 -0.003,0 z"
                   id="path235"
                   style="fill:url(#radialGradient3132);stroke:none"
                   inkscape:connector-curvature="0" /></g></g></g></g></g></g></g></svg>